<svg width="532" height="91" viewBox="0 0 532 91" fill="none" xmlns="http://www.w3.org/2000/svg">
<rect y="0.944336" width="532" height="90" rx="35" fill="white"/>
<rect x="368" y="11.9443" width="154" height="67" rx="33.5" fill="#1D25F1"/>
<path d="M30.2752 50.0993V58.9443H26.8822V50.4473L21.3142 39.8043H25.0262L28.7962 47.6633L32.3632 39.8043H35.8432L30.2752 50.0993ZM40.8552 43.5743C43.0205 43.5743 44.6252 44.28 45.6692 45.6913C46.7132 47.0833 47.2352 48.9683 47.2352 51.3463C47.2352 53.879 46.7325 55.8897 45.7272 57.3783C44.7218 58.8477 43.0978 59.5823 40.8552 59.5823C38.6512 59.5823 37.0368 58.8767 36.0122 57.4653C35.0068 56.054 34.5042 54.111 34.5042 51.6363C34.5042 49.239 35.0262 47.296 36.0702 45.8073C37.1142 44.3187 38.7092 43.5743 40.8552 43.5743ZM40.8552 57.8423C42.0538 57.8423 42.8368 57.2527 43.2042 56.0733C43.5715 54.894 43.7552 53.3667 43.7552 51.4913C43.7552 49.7707 43.5522 48.311 43.1462 47.1123C42.7595 45.9137 41.9958 45.3143 40.8552 45.3143C38.9412 45.3143 37.9842 47.3733 37.9842 51.4913C37.9842 53.3667 38.1582 54.894 38.5062 56.0733C38.8735 57.2527 39.6565 57.8423 40.8552 57.8423ZM61.5591 56.5663C61.5591 57.5137 61.8588 58.1517 62.4581 58.4803C62.3035 58.7703 62.0715 58.9927 61.7621 59.1473C61.4721 59.302 61.1338 59.3793 60.7471 59.3793C60.1865 59.3793 59.7225 59.2247 59.3551 58.9153C58.9878 58.5867 58.7655 58.1517 58.6881 57.6103C58.3788 58.2483 57.8761 58.7317 57.1801 59.0603C56.5035 59.4083 55.7688 59.5823 54.9761 59.5823C53.5841 59.5823 52.5208 59.2827 51.7861 58.6833C51.0708 58.0647 50.5971 57.2333 50.3651 56.1893C50.1331 55.126 50.0171 53.763 50.0171 52.1003V44.1543H53.2071V51.9553C53.2071 53.1347 53.2458 54.111 53.3231 54.8843C53.4198 55.6383 53.6615 56.286 54.0481 56.8273C54.4348 57.3687 55.0245 57.6393 55.8171 57.6393C56.6678 57.6393 57.3058 57.3203 57.7311 56.6823C58.1565 56.025 58.3691 55.213 58.3691 54.2463V44.1543H61.5591V56.5663ZM70.6717 45.8073C69.8404 45.8073 69.299 46.368 69.0477 47.4893C68.8157 48.5913 68.6997 49.9157 68.6997 51.4623V58.9443H65.5097V44.1543L68.1777 43.8063L68.3227 46.4163C68.5934 45.5463 69.067 44.86 69.7437 44.3573C70.4204 43.8353 71.2034 43.5743 72.0927 43.5743C73.0594 43.5743 73.823 43.8547 74.3837 44.4153C74.9637 44.976 75.2537 45.7397 75.2537 46.7063C75.2537 48.2723 74.4997 49.0553 72.9917 49.0553C72.489 49.0553 72.1024 48.949 71.8317 48.7363C71.967 48.2337 72.0347 47.7987 72.0347 47.4313C72.0347 46.3487 71.5804 45.8073 70.6717 45.8073ZM91.3584 54.8553C91.8031 55.068 92.0254 55.4837 92.0254 56.1023C92.0254 56.7983 91.7934 57.417 91.3294 57.9583C90.8654 58.4803 90.2661 58.8767 89.5314 59.1473C88.7968 59.4373 88.0524 59.5823 87.2984 59.5823C85.1718 59.5823 83.5961 58.896 82.5714 57.5233C81.5468 56.1313 81.0344 54.2657 81.0344 51.9263C81.0344 49.4323 81.5854 47.4217 82.6874 45.8943C83.8088 44.3477 85.5004 43.5743 87.7624 43.5743C89.1931 43.5743 90.3434 43.9513 91.2134 44.7053C92.0834 45.44 92.5184 46.484 92.5184 47.8373C92.5184 49.5193 91.9288 50.6987 90.7494 51.3753C89.5894 52.052 88.0041 52.3903 85.9934 52.3903C85.4328 52.3903 84.9011 52.371 84.3984 52.3323C84.4564 53.8597 84.7078 55.0777 85.1524 55.9863C85.6164 56.895 86.4284 57.3493 87.5884 57.3493C88.4391 57.3493 89.1834 57.1367 89.8214 56.7113C90.4788 56.2667 90.9911 55.648 91.3584 54.8553ZM87.2984 45.2273C86.2544 45.2273 85.5198 45.7783 85.0944 46.8803C84.6691 47.963 84.4371 49.297 84.3984 50.8823C84.9784 50.921 85.4038 50.9403 85.6744 50.9403C88.1104 50.9403 89.3284 49.964 89.3284 48.0113C89.3284 47.2187 89.1544 46.5613 88.8064 46.0393C88.4778 45.498 87.9751 45.2273 87.2984 45.2273ZM95.3027 44.1543L97.9707 43.8063L98.1157 46.4163C98.483 45.4883 99.0437 44.7827 99.7977 44.2993C100.571 43.816 101.47 43.5743 102.495 43.5743C103.635 43.5743 104.525 43.8063 105.163 44.2703C105.801 44.715 106.255 45.382 106.526 46.2713C107.28 44.4733 108.652 43.5743 110.644 43.5743C112.268 43.5743 113.399 44.0287 114.037 44.9373C114.675 45.8267 114.994 47.1897 114.994 49.0263V56.5663C114.994 57.5137 115.293 58.1517 115.893 58.4803C115.738 58.7703 115.487 58.9927 115.139 59.1473C114.791 59.302 114.423 59.3793 114.037 59.3793C113.283 59.3793 112.722 59.1667 112.355 58.7413C111.987 58.316 111.804 57.7167 111.804 56.9433V49.4323C111.804 48.2143 111.668 47.3057 111.398 46.7063C111.127 46.107 110.528 45.8073 109.6 45.8073C108.498 45.8073 107.763 46.3293 107.396 47.3733C107.028 48.4173 106.845 49.761 106.845 51.4043V58.9443H103.655V49.4323C103.655 48.2143 103.519 47.3057 103.249 46.7063C102.978 46.107 102.379 45.8073 101.451 45.8073C100.271 45.8073 99.4787 46.3293 99.0727 47.3733C98.686 48.4173 98.4927 49.761 98.4927 51.4043V58.9443H95.3027V44.1543ZM126.611 57.6103C126.244 58.287 125.702 58.78 124.987 59.0893C124.291 59.418 123.498 59.5823 122.609 59.5823C121.275 59.5823 120.154 59.1763 119.245 58.3643C118.356 57.5523 117.911 56.4987 117.911 55.2033C117.911 52.0713 120.705 50.5053 126.292 50.5053V47.9823C126.292 47.0157 126.147 46.3003 125.857 45.8363C125.567 45.353 125.016 45.1113 124.204 45.1113C123.527 45.1113 122.967 45.295 122.522 45.6623C122.077 46.0103 121.855 46.5033 121.855 47.1413C121.855 47.5473 121.932 47.9823 122.087 48.4463C121.816 48.659 121.43 48.7653 120.927 48.7653C120.231 48.7653 119.68 48.5913 119.274 48.2433C118.868 47.8953 118.665 47.3927 118.665 46.7353C118.665 45.8073 119.187 45.0533 120.231 44.4733C121.275 43.874 122.667 43.5743 124.407 43.5743C125.683 43.5743 126.688 43.7677 127.423 44.1543C128.158 44.5217 128.68 45.1017 128.989 45.8943C129.318 46.6677 129.482 47.7117 129.482 49.0263V56.5663C129.482 57.5137 129.782 58.1517 130.381 58.4803C130.226 58.7703 129.994 58.9927 129.685 59.1473C129.395 59.302 129.057 59.3793 128.67 59.3793C128.109 59.3793 127.645 59.2247 127.278 58.9153C126.911 58.5867 126.688 58.1517 126.611 57.6103ZM123.74 57.6393C124.591 57.6393 125.229 57.3203 125.654 56.6823C126.079 56.025 126.292 55.213 126.292 54.2463V51.9553C123.025 51.9553 121.391 52.9993 121.391 55.0873C121.391 55.8607 121.594 56.4793 122 56.9433C122.425 57.4073 123.005 57.6393 123.74 57.6393ZM134.876 38.0643C135.514 38.0643 136.026 38.219 136.413 38.5283C136.819 38.8377 137.022 39.2823 137.022 39.8623C137.022 40.4617 136.809 40.9257 136.384 41.2543C135.978 41.5637 135.446 41.7183 134.789 41.7183C134.151 41.7183 133.639 41.5637 133.252 41.2543C132.865 40.945 132.672 40.5003 132.672 39.9203C132.672 39.321 132.875 38.8667 133.281 38.5573C133.706 38.2287 134.238 38.0643 134.876 38.0643ZM136.384 56.5663C136.384 57.5137 136.684 58.1517 137.283 58.4803C137.128 58.7703 136.877 58.9927 136.529 59.1473C136.181 59.302 135.804 59.3793 135.398 59.3793C134.663 59.3793 134.112 59.1667 133.745 58.7413C133.378 58.316 133.194 57.7167 133.194 56.9433V44.1543H136.384V56.5663ZM143.58 38.2963V56.5663C143.58 57.5137 143.88 58.1517 144.479 58.4803C144.324 58.7703 144.063 58.9927 143.696 59.1473C143.348 59.302 142.981 59.3793 142.594 59.3793C141.859 59.3793 141.308 59.1667 140.941 58.7413C140.574 58.316 140.39 57.7167 140.39 56.9433V38.6443L143.58 38.2963ZM149.234 55.8703C149.872 55.8703 150.384 56.025 150.771 56.3343C151.157 56.6437 151.351 57.0883 151.351 57.6683C151.351 58.2677 151.138 58.722 150.713 59.0313C150.307 59.36 149.785 59.5243 149.147 59.5243C148.509 59.5243 147.996 59.3697 147.61 59.0603C147.223 58.751 147.03 58.3063 147.03 57.7263C147.03 57.127 147.233 56.6727 147.639 56.3633C148.064 56.0347 148.596 55.8703 149.234 55.8703ZM156.229 55.8703C156.867 55.8703 157.379 56.025 157.766 56.3343C158.152 56.6437 158.346 57.0883 158.346 57.6683C158.346 58.2677 158.133 58.722 157.708 59.0313C157.302 59.36 156.78 59.5243 156.142 59.5243C155.504 59.5243 154.991 59.3697 154.605 59.0603C154.218 58.751 154.025 58.3063 154.025 57.7263C154.025 57.127 154.228 56.6727 154.634 56.3633C155.059 56.0347 155.591 55.8703 156.229 55.8703Z" fill="#808080" fill-opacity="0.5"/>
</svg>
