<svg width="520" height="553" viewBox="0 0 520 553" fill="none" xmlns="http://www.w3.org/2000/svg">
<path d="M0 35C0 15.67 15.67 0 35 0H485C504.33 0 520 15.67 520 35V518C520 537.33 504.33 553 485 553H35C15.67 553 0 537.33 0 518V35Z" fill="#9BB3E3" fill-opacity="0.5"/>
<path d="M38 216C38 196.67 53.67 181 73 181H447C466.33 181 482 196.67 482 216V553H38V216Z" fill="#9BB3E3" fill-opacity="0.5"/>
<path d="M38 216C38 196.67 53.67 181 73 181H447C466.33 181 482 196.67 482 216V256H38V216Z" fill="black"/>
<circle cx="72" cy="219" r="20" fill="#FF0000"/>
<circle cx="136" cy="219" r="20" fill="#FFFF00"/>
<circle cx="200" cy="219" r="20" fill="#008000"/>
<rect x="72" y="285" width="168" height="118" rx="20" fill="#9BB3E3" fill-opacity="0.75"/>
<rect x="89" y="296" width="14" height="99" rx="7" fill="url(#paint0_linear_143_2)"/>
<rect x="118" y="352" width="13" height="43" rx="6.5" fill="#D9D9D9"/>
<rect x="147" y="341" width="14" height="54" rx="7" fill="#D9D9D9"/>
<rect x="175" y="296" width="16" height="99" rx="8" fill="#D9D9D9"/>
<rect x="205" y="365" width="14" height="30" rx="7" fill="#D9D9D9"/>
<circle cx="371" cy="344" r="50.5" fill="#808080" fill-opacity="0.5" stroke="url(#paint1_angular_143_2)" stroke-width="17"/>
<path d="M352.202 332.88L352.426 335.216L343.594 354.704L339.37 354L348.746 335.888L336.874 335.92L337.098 332.88H352.202ZM370.538 336.112H361.546L361.162 341.264C362.122 341.157 363.104 341.104 364.106 341.104C369.29 341.104 371.882 343.269 371.882 347.6C371.882 348.965 371.53 350.192 370.826 351.28C370.122 352.347 369.141 353.189 367.882 353.808C366.645 354.405 365.258 354.704 363.722 354.704C361.802 354.704 360.213 354.352 358.954 353.648C357.717 352.944 357.098 351.888 357.098 350.48C357.098 349.627 357.365 349.072 357.898 348.816C358.901 350.779 360.8 351.76 363.594 351.76C364.938 351.76 365.984 351.397 366.73 350.672C367.477 349.947 367.85 348.923 367.85 347.6C367.85 346.213 367.338 345.2 366.314 344.56C365.312 343.92 363.936 343.6 362.186 343.6C361.056 343.6 359.701 343.749 358.122 344.048L358.954 332.88H370.314L370.538 336.112ZM397.419 332.016C397.718 332.016 398.016 332.133 398.315 332.368C398.614 332.581 398.87 332.848 399.083 333.168L386.955 353.648C386.699 354.075 386.454 354.395 386.219 354.608C385.984 354.821 385.686 354.928 385.323 354.928C385.024 354.928 384.726 354.811 384.427 354.576C384.128 354.363 383.872 354.096 383.659 353.776L395.819 333.296C396.054 332.869 396.288 332.549 396.523 332.336C396.758 332.123 397.056 332.016 397.419 332.016ZM383.403 332.432C386.859 332.432 388.587 334.469 388.587 338.544C388.587 340.613 388.182 342.213 387.371 343.344C386.56 344.475 385.238 345.04 383.403 345.04C379.904 345.04 378.155 342.939 378.155 338.736C378.155 336.752 378.571 335.205 379.403 334.096C380.256 332.987 381.59 332.432 383.403 332.432ZM383.403 333.968C382.528 333.968 381.952 334.416 381.675 335.312C381.398 336.187 381.259 337.307 381.259 338.672C381.259 340.144 381.387 341.307 381.643 342.16C381.899 343.013 382.486 343.44 383.403 343.44C384.299 343.44 384.864 343.013 385.099 342.16C385.355 341.285 385.483 340.123 385.483 338.672C385.483 337.307 385.344 336.187 385.067 335.312C384.811 334.416 384.256 333.968 383.403 333.968ZM399.691 342C403.147 342 404.875 344.037 404.875 348.112C404.875 350.181 404.47 351.781 403.659 352.912C402.848 354.043 401.526 354.608 399.691 354.608C396.192 354.608 394.443 352.507 394.443 348.304C394.443 346.32 394.859 344.773 395.691 343.664C396.544 342.555 397.878 342 399.691 342ZM399.691 343.536C398.816 343.536 398.24 343.984 397.963 344.88C397.686 345.755 397.547 346.875 397.547 348.24C397.547 349.712 397.664 350.875 397.899 351.728C398.155 352.581 398.752 353.008 399.691 353.008C400.587 353.008 401.152 352.581 401.387 351.728C401.643 350.853 401.771 349.691 401.771 348.24C401.771 346.875 401.632 345.755 401.355 344.88C401.099 343.984 400.544 343.536 399.691 343.536Z" fill="white"/>
<rect x="73" y="449" width="357" height="20" rx="10" fill="#D9D9D9"/>
<rect x="72" y="485" width="319" height="20" rx="10" fill="#D9D9D9"/>
<rect x="71" y="521" width="281" height="20" rx="10" fill="#D9D9D9"/>
<defs>
<linearGradient id="paint0_linear_143_2" x1="96" y1="296" x2="96" y2="395" gradientUnits="userSpaceOnUse">
<stop stop-color="#D0CFDB"/>
<stop offset="1" stop-color="#322FD3"/>
</linearGradient>
<radialGradient id="paint1_angular_143_2" cx="0" cy="0" r="1" gradientUnits="userSpaceOnUse" gradientTransform="translate(371 344) rotate(90) scale(59)">
<stop offset="0.079151" stop-color="#7F1382"/>
<stop offset="0.451071" stop-color="#BD09C0"/>
<stop offset="0.840269" stop-color="#FCF7FC"/>
<stop offset="0.962789" stop-color="#F5F5F5"/>
</radialGradient>
</defs>
</svg>
