<svg width="453" height="91" viewBox="0 0 453 91" fill="none" xmlns="http://www.w3.org/2000/svg">
<rect y="0.944336" width="453" height="90" rx="35" fill="#051B69"/>
<circle cx="53.5" cy="45.4443" r="37.5" fill="#808080" fill-opacity="0.85"/>
<path d="M81.314 45.2561L41.0562 69.3473L40.5441 22.042L81.314 45.2561Z" fill="white"/>
<path d="M152.824 38.9203C155.105 38.7657 157.116 38.6883 158.856 38.6883C163.921 38.6883 166.454 41.7623 166.454 47.9103C166.454 54.793 163.689 58.2343 158.16 58.2343C156.536 58.2343 154.757 58.0893 152.824 57.7993V38.9203ZM158.16 56.2043C159.513 56.2043 160.538 55.866 161.234 55.1893C161.93 54.5127 162.384 53.6233 162.597 52.5213C162.81 51.4 162.916 49.9983 162.916 48.3163C162.916 46.0737 162.616 44.2467 162.017 42.8353C161.418 41.424 160.296 40.7183 158.653 40.7183C157.938 40.7183 157.126 40.7667 156.217 40.8633V56.0303C156.913 56.1463 157.561 56.2043 158.16 56.2043ZM170.991 37.0643C171.629 37.0643 172.141 37.219 172.528 37.5283C172.934 37.8377 173.137 38.2823 173.137 38.8623C173.137 39.4617 172.924 39.9257 172.499 40.2543C172.093 40.5637 171.561 40.7183 170.904 40.7183C170.266 40.7183 169.754 40.5637 169.367 40.2543C168.98 39.945 168.787 39.5003 168.787 38.9203C168.787 38.321 168.99 37.8667 169.396 37.5573C169.821 37.2287 170.353 37.0643 170.991 37.0643ZM172.499 55.5663C172.499 56.5137 172.799 57.1517 173.398 57.4803C173.243 57.7703 172.992 57.9927 172.644 58.1473C172.296 58.302 171.919 58.3793 171.513 58.3793C170.778 58.3793 170.227 58.1667 169.86 57.7413C169.493 57.316 169.309 56.7167 169.309 55.9433V43.1543H172.499V55.5663ZM181.145 44.1113C180.565 44.1113 180.101 44.266 179.753 44.5753C179.405 44.8653 179.231 45.2907 179.231 45.8513C179.231 46.6053 179.483 47.224 179.985 47.7073C180.507 48.1713 181.3 48.6933 182.363 49.2733C183.214 49.7373 183.891 50.153 184.393 50.5203C184.915 50.8877 185.36 51.3613 185.727 51.9413C186.095 52.502 186.278 53.1883 186.278 54.0003C186.278 55.4697 185.747 56.6007 184.683 57.3933C183.639 58.186 182.305 58.5823 180.681 58.5823C179.27 58.5823 178.081 58.3407 177.114 57.8573C176.167 57.374 175.693 56.5717 175.693 55.4503C175.693 54.793 175.896 54.2903 176.302 53.9423C176.708 53.5943 177.259 53.4203 177.955 53.4203C178.458 53.4203 178.845 53.5267 179.115 53.7393C178.961 54.2033 178.883 54.6383 178.883 55.0443C178.883 55.663 179.077 56.156 179.463 56.5233C179.85 56.8713 180.372 57.0453 181.029 57.0453C181.745 57.0453 182.286 56.8617 182.653 56.4943C183.04 56.1077 183.233 55.547 183.233 54.8123C183.233 54.0583 182.972 53.4493 182.45 52.9853C181.948 52.502 181.165 51.9703 180.101 51.3903C179.251 50.907 178.564 50.4817 178.042 50.1143C177.54 49.747 177.105 49.283 176.737 48.7223C176.37 48.1423 176.186 47.4463 176.186 46.6343C176.186 45.339 176.708 44.3433 177.752 43.6473C178.796 42.932 180.063 42.5743 181.551 42.5743C182.924 42.5743 184.045 42.8257 184.915 43.3283C185.805 43.8117 186.249 44.614 186.249 45.7353C186.249 46.3927 186.037 46.8953 185.611 47.2433C185.205 47.5913 184.654 47.7653 183.958 47.7653C183.456 47.7653 183.069 47.659 182.798 47.4463C182.953 46.9823 183.03 46.5473 183.03 46.1413C183.03 45.5033 182.866 45.0103 182.537 44.6623C182.228 44.295 181.764 44.1113 181.145 44.1113ZM194.611 44.2853C192.678 44.2853 191.711 46.3927 191.711 50.6073C191.711 52.328 191.924 53.72 192.349 54.7833C192.794 55.8273 193.644 56.3493 194.901 56.3493C195.752 56.3493 196.477 56.127 197.076 55.6823C197.695 55.2183 198.11 54.5707 198.323 53.7393C198.652 53.894 198.884 54.0777 199.019 54.2903C199.174 54.4837 199.251 54.7543 199.251 55.1023C199.251 55.7983 199.019 56.417 198.555 56.9583C198.11 57.4803 197.53 57.8767 196.815 58.1473C196.1 58.4373 195.365 58.5823 194.611 58.5823C192.484 58.5823 190.909 57.896 189.884 56.5233C188.859 55.1313 188.347 53.2657 188.347 50.9263C188.347 48.4323 188.898 46.4217 190 44.8943C191.121 43.3477 192.803 42.5743 195.046 42.5743C196.361 42.5743 197.443 42.845 198.294 43.3863C199.145 43.9277 199.57 44.759 199.57 45.8803C199.57 46.5377 199.367 47.0403 198.961 47.3883C198.555 47.7363 198.004 47.9103 197.308 47.9103C197.095 47.9103 196.873 47.8813 196.641 47.8233C196.428 47.7653 196.254 47.688 196.119 47.5913C196.274 47.1273 196.351 46.6923 196.351 46.2863C196.351 44.9523 195.771 44.2853 194.611 44.2853ZM207.64 42.5743C209.806 42.5743 211.41 43.28 212.454 44.6913C213.498 46.0833 214.02 47.9683 214.02 50.3463C214.02 52.879 213.518 54.8897 212.512 56.3783C211.507 57.8477 209.883 58.5823 207.64 58.5823C205.436 58.5823 203.822 57.8767 202.797 56.4653C201.792 55.054 201.289 53.111 201.289 50.6363C201.289 48.239 201.811 46.296 202.855 44.8073C203.899 43.3187 205.494 42.5743 207.64 42.5743ZM207.64 56.8423C208.839 56.8423 209.622 56.2527 209.989 55.0733C210.357 53.894 210.54 52.3667 210.54 50.4913C210.54 48.7707 210.337 47.311 209.931 46.1123C209.545 44.9137 208.781 44.3143 207.64 44.3143C205.726 44.3143 204.769 46.3733 204.769 50.4913C204.769 52.3667 204.943 53.894 205.291 55.0733C205.659 56.2527 206.442 56.8423 207.64 56.8423ZM227.213 43.1543L222.892 57.9443H218.948L214.946 43.1543H218.252L221.21 56.0013L224.168 43.1543H227.213ZM238.433 53.8553C238.877 54.068 239.1 54.4837 239.1 55.1023C239.1 55.7983 238.868 56.417 238.404 56.9583C237.94 57.4803 237.34 57.8767 236.606 58.1473C235.871 58.4373 235.127 58.5823 234.373 58.5823C232.246 58.5823 230.67 57.896 229.646 56.5233C228.621 55.1313 228.109 53.2657 228.109 50.9263C228.109 48.4323 228.66 46.4217 229.762 44.8943C230.883 43.3477 232.575 42.5743 234.837 42.5743C236.267 42.5743 237.418 42.9513 238.288 43.7053C239.158 44.44 239.593 45.484 239.593 46.8373C239.593 48.5193 239.003 49.6987 237.824 50.3753C236.664 51.052 235.078 51.3903 233.068 51.3903C232.507 51.3903 231.975 51.371 231.473 51.3323C231.531 52.8597 231.782 54.0777 232.227 54.9863C232.691 55.895 233.503 56.3493 234.663 56.3493C235.513 56.3493 236.258 56.1367 236.896 55.7113C237.553 55.2667 238.065 54.648 238.433 53.8553ZM234.373 44.2273C233.329 44.2273 232.594 44.7783 232.169 45.8803C231.743 46.963 231.511 48.297 231.473 49.8823C232.053 49.921 232.478 49.9403 232.749 49.9403C235.185 49.9403 236.403 48.964 236.403 47.0113C236.403 46.2187 236.229 45.5613 235.881 45.0393C235.552 44.498 235.049 44.2273 234.373 44.2273ZM247.539 44.8073C246.708 44.8073 246.166 45.368 245.915 46.4893C245.683 47.5913 245.567 48.9157 245.567 50.4623V57.9443H242.377V43.1543L245.045 42.8063L245.19 45.4163C245.461 44.5463 245.934 43.86 246.611 43.3573C247.288 42.8353 248.071 42.5743 248.96 42.5743C249.927 42.5743 250.69 42.8547 251.251 43.4153C251.831 43.976 252.121 44.7397 252.121 45.7063C252.121 47.2723 251.367 48.0553 249.859 48.0553C249.356 48.0553 248.97 47.949 248.699 47.7363C248.834 47.2337 248.902 46.7987 248.902 46.4313C248.902 45.3487 248.448 44.8073 247.539 44.8073ZM265.413 38.2243C270.362 38.2243 272.837 41.5207 272.837 48.1133C272.837 55.0927 270.362 58.5823 265.413 58.5823C262.706 58.5823 260.782 57.6833 259.642 55.8853C258.52 54.0873 257.96 51.6127 257.96 48.4613C257.96 45.368 258.54 42.8933 259.7 41.0373C260.879 39.162 262.783 38.2243 265.413 38.2243ZM265.413 56.5523C266.959 56.5523 267.974 55.7887 268.458 54.2613C268.941 52.7147 269.183 50.733 269.183 48.3163C269.183 46.0157 268.931 44.1017 268.429 42.5743C267.926 41.0277 266.921 40.2543 265.413 40.2543C263.885 40.2543 262.87 41.0277 262.368 42.5743C261.865 44.1017 261.614 46.0157 261.614 48.3163C261.614 50.733 261.855 52.7147 262.339 54.2613C262.822 55.7887 263.847 56.5523 265.413 56.5523ZM287.222 55.5663C287.222 56.5137 287.522 57.1517 288.121 57.4803C287.967 57.7703 287.735 57.9927 287.425 58.1473C287.135 58.302 286.797 58.3793 286.41 58.3793C285.85 58.3793 285.386 58.2247 285.018 57.9153C284.651 57.5867 284.429 57.1517 284.351 56.6103C284.042 57.2483 283.539 57.7317 282.843 58.0603C282.167 58.4083 281.432 58.5823 280.639 58.5823C279.247 58.5823 278.184 58.2827 277.449 57.6833C276.734 57.0647 276.26 56.2333 276.028 55.1893C275.796 54.126 275.68 52.763 275.68 51.1003V43.1543H278.87V50.9553C278.87 52.1347 278.909 53.111 278.986 53.8843C279.083 54.6383 279.325 55.286 279.711 55.8273C280.098 56.3687 280.688 56.6393 281.48 56.6393C282.331 56.6393 282.969 56.3203 283.394 55.6823C283.82 55.025 284.032 54.213 284.032 53.2463V43.1543H287.222V55.5663ZM296.335 44.8073C295.503 44.8073 294.962 45.368 294.711 46.4893C294.479 47.5913 294.363 48.9157 294.363 50.4623V57.9443H291.173V43.1543L293.841 42.8063L293.986 45.4163C294.256 44.5463 294.73 43.86 295.407 43.3573C296.083 42.8353 296.866 42.5743 297.756 42.5743C298.722 42.5743 299.486 42.8547 300.047 43.4153C300.627 43.976 300.917 44.7397 300.917 45.7063C300.917 47.2723 300.163 48.0553 298.655 48.0553C298.152 48.0553 297.765 47.949 297.495 47.7363C297.63 47.2337 297.698 46.7987 297.698 46.4313C297.698 45.3487 297.243 44.8073 296.335 44.8073ZM312.846 38.2243C314.508 38.2243 315.842 38.5433 316.848 39.1813C317.872 39.8193 318.385 40.844 318.385 42.2553C318.385 42.9513 318.182 43.5217 317.776 43.9663C317.37 44.3917 316.819 44.6043 316.123 44.6043C315.446 44.6043 314.943 44.4497 314.615 44.1403C314.769 43.715 314.847 43.2317 314.847 42.6903C314.847 40.989 314.093 40.1383 312.585 40.1383C311.85 40.1383 311.27 40.322 310.845 40.6893C310.439 41.0373 310.236 41.5593 310.236 42.2553C310.236 42.8933 310.4 43.4733 310.729 43.9953C311.057 44.5173 311.463 44.9813 311.947 45.3873C312.449 45.7933 313.126 46.2863 313.977 46.8663C314.982 47.543 315.784 48.152 316.384 48.6933C317.002 49.2153 317.524 49.8533 317.95 50.6073C318.375 51.342 318.588 52.1927 318.588 53.1593C318.588 54.88 317.998 56.214 316.819 57.1613C315.639 58.1087 314.112 58.5823 312.237 58.5823C310.535 58.5823 309.124 58.244 308.003 57.5673C306.901 56.8713 306.35 55.7983 306.35 54.3483C306.35 53.6523 306.553 53.0917 306.959 52.6663C307.365 52.2217 307.906 51.9993 308.583 51.9993C309.259 51.9993 309.762 52.154 310.091 52.4633C309.955 52.85 309.888 53.3333 309.888 53.9133C309.888 55.75 310.758 56.6683 312.498 56.6683C313.348 56.6683 314.044 56.4363 314.586 55.9723C315.127 55.489 315.398 54.8413 315.398 54.0293C315.398 53.3913 315.233 52.8113 314.905 52.2893C314.576 51.7673 314.16 51.3033 313.658 50.8973C313.174 50.4913 312.507 49.9983 311.657 49.4183C310.651 48.7417 309.839 48.1423 309.221 47.6203C308.621 47.079 308.109 46.441 307.684 45.7063C307.258 44.9523 307.046 44.092 307.046 43.1253C307.046 41.5787 307.587 40.38 308.67 39.5293C309.772 38.6593 311.164 38.2243 312.846 38.2243ZM326.727 42.5743C328.893 42.5743 330.497 43.28 331.541 44.6913C332.585 46.0833 333.107 47.9683 333.107 50.3463C333.107 52.879 332.605 54.8897 331.599 56.3783C330.594 57.8477 328.97 58.5823 326.727 58.5823C324.523 58.5823 322.909 57.8767 321.884 56.4653C320.879 55.054 320.376 53.111 320.376 50.6363C320.376 48.239 320.898 46.296 321.942 44.8073C322.986 43.3187 324.581 42.5743 326.727 42.5743ZM326.727 56.8423C327.926 56.8423 328.709 56.2527 329.076 55.0733C329.444 53.894 329.627 52.3667 329.627 50.4913C329.627 48.7707 329.424 47.311 329.018 46.1123C328.632 44.9137 327.868 44.3143 326.727 44.3143C324.813 44.3143 323.856 46.3733 323.856 50.4913C323.856 52.3667 324.03 53.894 324.378 55.0733C324.746 56.2527 325.529 56.8423 326.727 56.8423ZM339.195 37.2963V55.5663C339.195 56.5137 339.495 57.1517 340.094 57.4803C339.94 57.7703 339.679 57.9927 339.311 58.1473C338.963 58.302 338.596 58.3793 338.209 58.3793C337.475 58.3793 336.924 58.1667 336.556 57.7413C336.189 57.316 336.005 56.7167 336.005 55.9433V37.6443L339.195 37.2963ZM354.738 55.5663C354.738 56.5137 355.038 57.1517 355.637 57.4803C355.482 57.7703 355.25 57.9927 354.941 58.1473C354.651 58.302 354.313 58.3793 353.926 58.3793C353.365 58.3793 352.901 58.2247 352.534 57.9153C352.167 57.5867 351.944 57.1517 351.867 56.6103C351.558 57.2483 351.055 57.7317 350.359 58.0603C349.682 58.4083 348.948 58.5823 348.155 58.5823C346.763 58.5823 345.7 58.2827 344.965 57.6833C344.25 57.0647 343.776 56.2333 343.544 55.1893C343.312 54.126 343.196 52.763 343.196 51.1003V43.1543H346.386V50.9553C346.386 52.1347 346.425 53.111 346.502 53.8843C346.599 54.6383 346.84 55.286 347.227 55.8273C347.614 56.3687 348.203 56.6393 348.996 56.6393C349.847 56.6393 350.485 56.3203 350.91 55.6823C351.335 55.025 351.548 54.213 351.548 53.2463V43.1543H354.738V55.5663ZM356.919 44.4593L356.89 43.5893C357.76 43.2413 358.582 42.7773 359.355 42.1973C360.148 41.6173 360.815 40.9793 361.356 40.2833H362.255V43.1543H364.923V44.4593H362.197V55.0153C362.197 55.5953 362.304 56.0303 362.516 56.3203C362.729 56.6103 363.067 56.794 363.531 56.8713C363.435 57.316 363.174 57.6737 362.748 57.9443C362.342 58.2343 361.869 58.3793 361.327 58.3793C359.761 58.3793 358.978 57.49 358.978 55.7113V44.4593H356.919ZM368.582 37.0643C369.22 37.0643 369.732 37.219 370.119 37.5283C370.525 37.8377 370.728 38.2823 370.728 38.8623C370.728 39.4617 370.515 39.9257 370.09 40.2543C369.684 40.5637 369.152 40.7183 368.495 40.7183C367.857 40.7183 367.345 40.5637 366.958 40.2543C366.571 39.945 366.378 39.5003 366.378 38.9203C366.378 38.321 366.581 37.8667 366.987 37.5573C367.412 37.2287 367.944 37.0643 368.582 37.0643ZM370.09 55.5663C370.09 56.5137 370.39 57.1517 370.989 57.4803C370.834 57.7703 370.583 57.9927 370.235 58.1473C369.887 58.302 369.51 58.3793 369.104 58.3793C368.369 58.3793 367.818 58.1667 367.451 57.7413C367.084 57.316 366.9 56.7167 366.9 55.9433V43.1543H370.09V55.5663ZM379.403 42.5743C381.568 42.5743 383.173 43.28 384.217 44.6913C385.261 46.0833 385.783 47.9683 385.783 50.3463C385.783 52.879 385.28 54.8897 384.275 56.3783C383.27 57.8477 381.646 58.5823 379.403 58.5823C377.199 58.5823 375.585 57.8767 374.56 56.4653C373.555 55.054 373.052 53.111 373.052 50.6363C373.052 48.239 373.574 46.296 374.618 44.8073C375.662 43.3187 377.257 42.5743 379.403 42.5743ZM379.403 56.8423C380.602 56.8423 381.385 56.2527 381.752 55.0733C382.119 53.894 382.303 52.3667 382.303 50.4913C382.303 48.7707 382.1 47.311 381.694 46.1123C381.307 44.9137 380.544 44.3143 379.403 44.3143C377.489 44.3143 376.532 46.3733 376.532 50.4913C376.532 52.3667 376.706 53.894 377.054 55.0733C377.421 56.2527 378.204 56.8423 379.403 56.8423ZM388.623 43.1543L391.291 42.8063L391.436 45.4163C391.803 44.4883 392.364 43.7827 393.118 43.2993C393.891 42.816 394.79 42.5743 395.815 42.5743C397.439 42.5743 398.57 43.0287 399.208 43.9373C399.846 44.8267 400.165 46.1897 400.165 48.0263V55.5663C400.165 56.5137 400.465 57.1517 401.064 57.4803C400.909 57.7703 400.658 57.9927 400.31 58.1473C399.962 58.302 399.595 58.3793 399.208 58.3793C398.454 58.3793 397.893 58.1667 397.526 57.7413C397.159 57.316 396.975 56.7167 396.975 55.9433V48.4323C396.975 47.2143 396.84 46.3057 396.569 45.7063C396.298 45.107 395.699 44.8073 394.771 44.8073C393.592 44.8073 392.799 45.3293 392.393 46.3733C392.006 47.4173 391.813 48.761 391.813 50.4043V57.9443H388.623V43.1543ZM408.642 44.1113C408.062 44.1113 407.598 44.266 407.25 44.5753C406.902 44.8653 406.728 45.2907 406.728 45.8513C406.728 46.6053 406.98 47.224 407.482 47.7073C408.004 48.1713 408.797 48.6933 409.86 49.2733C410.711 49.7373 411.388 50.153 411.89 50.5203C412.412 50.8877 412.857 51.3613 413.224 51.9413C413.592 52.502 413.775 53.1883 413.775 54.0003C413.775 55.4697 413.244 56.6007 412.18 57.3933C411.136 58.186 409.802 58.5823 408.178 58.5823C406.767 58.5823 405.578 58.3407 404.611 57.8573C403.664 57.374 403.19 56.5717 403.19 55.4503C403.19 54.793 403.393 54.2903 403.799 53.9423C404.205 53.5943 404.756 53.4203 405.452 53.4203C405.955 53.4203 406.342 53.5267 406.612 53.7393C406.458 54.2033 406.38 54.6383 406.38 55.0443C406.38 55.663 406.574 56.156 406.96 56.5233C407.347 56.8713 407.869 57.0453 408.526 57.0453C409.242 57.0453 409.783 56.8617 410.15 56.4943C410.537 56.1077 410.73 55.547 410.73 54.8123C410.73 54.0583 410.469 53.4493 409.947 52.9853C409.445 52.502 408.662 51.9703 407.598 51.3903C406.748 50.907 406.061 50.4817 405.539 50.1143C405.037 49.747 404.602 49.283 404.234 48.7223C403.867 48.1423 403.683 47.4463 403.683 46.6343C403.683 45.339 404.205 44.3433 405.249 43.6473C406.293 42.932 407.56 42.5743 409.048 42.5743C410.421 42.5743 411.542 42.8257 412.412 43.3283C413.302 43.8117 413.746 44.614 413.746 45.7353C413.746 46.3927 413.534 46.8953 413.108 47.2433C412.702 47.5913 412.151 47.7653 411.455 47.7653C410.953 47.7653 410.566 47.659 410.295 47.4463C410.45 46.9823 410.527 46.5473 410.527 46.1413C410.527 45.5033 410.363 45.0103 410.034 44.6623C409.725 44.295 409.261 44.1113 408.642 44.1113Z" fill="white"/>
</svg>
