<svg width="519" height="200" viewBox="0 0 519 200" fill="none" xmlns="http://www.w3.org/2000/svg">
<path d="M0 35C0 15.67 15.67 0 35 0H519V57H0V35Z" fill="#0E0000"/>
<circle cx="58.5" cy="28.5" r="12.5" fill="#F10F0F"/>
<circle cx="99.5" cy="28.5" r="12.5" fill="#D9FA13"/>
<circle cx="140.5" cy="28.5" r="12.5" fill="#0CB73C"/>
<path d="M101 180C101 176.134 104.134 173 108 173C111.866 173 115 176.134 115 180V200H101V180Z" fill="#5A7DFA"/>
<path d="M340 180C340 176.134 343.134 173 347 173C350.866 173 354 176.134 354 180V200H340V180Z" fill="#5A7DFA"/>
<path d="M124 139C124 135.134 127.134 132 131 132C134.866 132 138 135.134 138 139V200H124V139Z" fill="#5A7DFA"/>
<path d="M366 139C366 135.134 369.134 132 373 132C376.866 132 380 135.134 380 139V200H366V139Z" fill="#5A7DFA"/>
<path d="M147 162C147 158.134 150.134 155 154 155C157.866 155 161 158.134 161 162V200H147V162Z" fill="#5A7DFA"/>
<path d="M389 162C389 158.134 392.134 155 396 155C399.866 155 403 158.134 403 162V200H389V162Z" fill="#5A7DFA"/>
<path d="M412 194C412 190.134 415.134 187 419 187C422.866 187 426 190.134 426 194V200H412V194Z" fill="#5A7DFA"/>
<path d="M193 139C193 135.134 196.134 132 200 132C203.866 132 207 135.134 207 139V200H193V139Z" fill="#5A7DFA"/>
<path d="M435 139C435 135.134 438.134 132 442 132C445.866 132 449 135.134 449 139V200H435V139Z" fill="#5A7DFA"/>
<path d="M14.6331 139.426L14.6066 153.971L12.8452 153.968L12.8684 141.269L12.7832 141.269L9.22775 143.62L9.23102 141.831L12.8718 139.422L14.6331 139.426ZM18.7898 153.979L18.7922 152.7L23.6029 147.453C24.1674 146.839 24.6324 146.305 24.9979 145.851C25.3633 145.392 25.6339 144.962 25.8099 144.56C25.9905 144.153 26.0813 143.727 26.0821 143.282C26.083 142.77 25.9607 142.327 25.7152 141.953C25.4744 141.578 25.1435 141.289 24.7225 141.085C24.3014 140.88 23.8281 140.778 23.3026 140.777C22.7439 140.776 22.256 140.891 21.8389 141.122C21.4265 141.349 21.1063 141.668 20.8783 142.079C20.655 142.491 20.5429 142.973 20.5419 143.527L18.8657 143.524C18.8673 142.672 19.0651 141.924 19.4593 141.281C19.8535 140.638 20.3894 140.137 21.0672 139.778C21.7496 139.42 22.5147 139.241 23.3622 139.243C24.2145 139.244 24.9693 139.426 25.6268 139.787C26.2843 140.148 26.7995 140.634 27.1725 141.245C27.5454 141.857 27.7312 142.537 27.7298 143.285C27.7288 143.82 27.6308 144.343 27.4358 144.854C27.2454 145.36 26.913 145.925 26.4383 146.549C25.9685 147.169 25.316 147.925 24.4811 148.819L21.2076 152.307L21.2074 152.421L27.9688 152.433L27.9659 153.995L18.7898 153.979ZM35.6431 154.208C34.573 154.206 33.6621 153.914 32.9103 153.33C32.1586 152.741 31.5848 151.89 31.1891 150.777C30.7935 149.659 30.5971 148.309 30.6 146.728C30.6028 145.156 30.8041 143.814 31.2039 142.702C31.6084 141.585 32.1876 140.734 32.9415 140.148C33.7002 139.557 34.6098 139.263 35.6704 139.265C36.731 139.267 37.6372 139.565 38.389 140.158C39.1455 140.746 39.7215 141.6 40.1172 142.718C40.5177 143.831 40.7164 145.174 40.7136 146.746C40.7107 148.327 40.5094 149.676 40.1096 150.793C39.7098 151.905 39.133 152.754 38.3791 153.34C37.6252 153.921 36.7132 154.21 35.6431 154.208ZM35.646 152.646C36.7066 152.648 37.5314 152.138 38.1204 151.116C38.7093 150.095 39.0056 148.637 39.009 146.743C39.0113 145.483 38.8783 144.411 38.6101 143.525C38.3465 142.639 37.9643 141.963 37.4632 141.499C36.9669 141.034 36.3684 140.801 35.6676 140.799C34.6165 140.797 33.794 141.314 33.2003 142.35C32.6065 143.381 32.3079 144.841 32.3045 146.731C32.3022 147.99 32.4328 149.06 32.6964 149.942C32.9599 150.823 33.3398 151.493 33.8362 151.954C34.3372 152.414 34.9405 152.645 35.646 152.646ZM44.9973 150.049L44.9727 147.975L45.3136 147.976L50.0952 143.127L52.1691 143.131L47.0744 148.263L46.9324 148.263L44.9973 150.049ZM43.4276 154.024L43.4541 139.478L45.1303 139.481L45.1037 154.027L43.4276 154.024ZM50.3594 154.036L46.1079 148.631L47.3032 147.468L52.49 154.04L50.3594 154.036Z" fill="#120000"/>
<path d="M12.0739 172V164.364H13.2472V172H12.0739ZM12.6705 163.091C12.4418 163.091 12.2446 163.013 12.0788 162.857C11.9164 162.701 11.8352 162.514 11.8352 162.295C11.8352 162.077 11.9164 161.889 12.0788 161.734C12.2446 161.578 12.4418 161.5 12.6705 161.5C12.8991 161.5 13.0947 161.578 13.2571 161.734C13.4228 161.889 13.5057 162.077 13.5057 162.295C13.5057 162.514 13.4228 162.701 13.2571 162.857C13.0947 163.013 12.8991 163.091 12.6705 163.091ZM16.5694 167.406V172H15.3961V164.364H16.5297V165.557H16.6291C16.8081 165.169 17.0798 164.857 17.4444 164.622C17.809 164.384 18.2797 164.264 18.8564 164.264C19.3734 164.264 19.8258 164.37 20.2136 164.582C20.6014 164.791 20.903 165.109 21.1184 165.537C21.3339 165.961 21.4416 166.498 21.4416 167.148V172H20.2683V167.227C20.2683 166.627 20.1125 166.16 19.801 165.825C19.4894 165.487 19.0618 165.318 18.5183 165.318C18.1438 165.318 17.809 165.399 17.514 165.562C17.2224 165.724 16.992 165.961 16.823 166.273C16.6539 166.584 16.5694 166.962 16.5694 167.406ZM26.9066 164.364V165.358H22.9492V164.364H26.9066ZM24.1026 162.534H25.2759V169.812C25.2759 170.144 25.324 170.393 25.4201 170.558C25.5195 170.721 25.6455 170.83 25.7979 170.886C25.9537 170.939 26.1178 170.966 26.2901 170.966C26.4194 170.966 26.5255 170.959 26.6083 170.946C26.6912 170.929 26.7575 170.916 26.8072 170.906L27.0458 171.96C26.9663 171.99 26.8552 172.02 26.7127 172.05C26.5702 172.083 26.3896 172.099 26.1708 172.099C25.8394 172.099 25.5146 172.028 25.1964 171.886C24.8815 171.743 24.6197 171.526 24.4109 171.234C24.2054 170.943 24.1026 170.575 24.1026 170.131V162.534ZM31.7912 172.159C31.0554 172.159 30.4207 171.997 29.8871 171.672C29.3568 171.344 28.9474 170.886 28.6591 170.3C28.3741 169.71 28.2315 169.024 28.2315 168.241C28.2315 167.459 28.3741 166.77 28.6591 166.173C28.9474 165.573 29.3485 165.106 29.8622 164.771C30.3793 164.433 30.9825 164.264 31.6719 164.264C32.0696 164.264 32.4624 164.33 32.8501 164.463C33.2379 164.596 33.5909 164.811 33.9091 165.109C34.2273 165.404 34.4808 165.795 34.6697 166.283C34.8587 166.77 34.9531 167.37 34.9531 168.082V168.58H29.0668V167.565H33.7599C33.7599 167.134 33.6738 166.75 33.5014 166.412C33.3324 166.074 33.0904 165.807 32.7756 165.612C32.464 165.416 32.0961 165.318 31.6719 165.318C31.2045 165.318 30.8002 165.434 30.4588 165.666C30.1207 165.895 29.8606 166.193 29.6783 166.561C29.496 166.929 29.4048 167.323 29.4048 167.744V168.42C29.4048 168.997 29.5043 169.486 29.7031 169.887C29.9053 170.285 30.1854 170.588 30.5433 170.797C30.9013 171.002 31.3172 171.105 31.7912 171.105C32.0994 171.105 32.3778 171.062 32.6264 170.976C32.8783 170.886 33.0954 170.754 33.2777 170.578C33.46 170.399 33.6009 170.177 33.7003 169.912L34.8338 170.23C34.7145 170.615 34.514 170.953 34.2322 171.244C33.9505 171.533 33.6025 171.758 33.1882 171.92C32.7739 172.08 32.3082 172.159 31.7912 172.159ZM36.7379 172V164.364H37.8714V165.517H37.951C38.0902 165.139 38.3421 164.833 38.7067 164.597C39.0713 164.362 39.4822 164.244 39.9396 164.244C40.0258 164.244 40.1335 164.246 40.2628 164.249C40.392 164.253 40.4898 164.258 40.5561 164.264V165.457C40.5163 165.447 40.4252 165.433 40.2827 165.413C40.1435 165.389 39.996 165.378 39.8402 165.378C39.469 165.378 39.1375 165.456 38.8459 165.612C38.5575 165.764 38.3288 165.976 38.1598 166.248C37.9941 166.516 37.9112 166.823 37.9112 167.168V172H36.7379ZM44.1941 172.179C43.7102 172.179 43.271 172.088 42.8766 171.906C42.4822 171.72 42.169 171.453 41.937 171.105C41.705 170.754 41.589 170.33 41.589 169.832C41.589 169.395 41.6751 169.04 41.8475 168.768C42.0198 168.493 42.2502 168.278 42.5385 168.122C42.8269 167.966 43.1451 167.85 43.4931 167.774C43.8444 167.695 44.1974 167.632 44.552 167.585C45.016 167.526 45.3922 167.481 45.6806 167.451C45.9722 167.418 46.1844 167.363 46.3169 167.287C46.4528 167.211 46.5208 167.078 46.5208 166.889V166.849C46.5208 166.359 46.3865 165.978 46.1181 165.706C45.8529 165.434 45.4502 165.298 44.91 165.298C44.3498 165.298 43.9107 165.421 43.5925 165.666C43.2743 165.911 43.0506 166.173 42.9213 166.452L41.8077 166.054C42.0066 165.59 42.2717 165.229 42.6032 164.97C42.9379 164.708 43.3025 164.526 43.6969 164.423C44.0946 164.317 44.4857 164.264 44.8702 164.264C45.1155 164.264 45.3972 164.294 45.7154 164.354C46.0369 164.41 46.3468 164.528 46.6451 164.707C46.9467 164.886 47.1969 165.156 47.3958 165.517C47.5946 165.878 47.6941 166.362 47.6941 166.969V172H46.5208V170.966H46.4611C46.3816 171.132 46.249 171.309 46.0634 171.498C45.8778 171.687 45.6309 171.848 45.3226 171.98C45.0144 172.113 44.6382 172.179 44.1941 172.179ZM44.373 171.125C44.8371 171.125 45.2282 171.034 45.5463 170.852C45.8678 170.669 46.1098 170.434 46.2722 170.146C46.4379 169.857 46.5208 169.554 46.5208 169.236V168.162C46.4711 168.222 46.3617 168.276 46.1926 168.326C46.0269 168.372 45.8347 168.414 45.6159 168.45C45.4005 168.483 45.19 168.513 44.9846 168.54C44.7824 168.563 44.6183 168.583 44.4924 168.599C44.1874 168.639 43.9024 168.704 43.6373 168.793C43.3754 168.879 43.1633 169.01 43.0009 169.186C42.8418 169.358 42.7623 169.594 42.7623 169.892C42.7623 170.3 42.9131 170.608 43.2147 170.817C43.5196 171.022 43.9057 171.125 44.373 171.125ZM52.9379 172.159C52.2219 172.159 51.6055 171.99 51.0884 171.652C50.5714 171.314 50.1737 170.848 49.8952 170.255C49.6168 169.662 49.4776 168.984 49.4776 168.222C49.4776 167.446 49.6201 166.762 49.9052 166.168C50.1935 165.572 50.5946 165.106 51.1083 164.771C51.6254 164.433 52.2286 164.264 52.918 164.264C53.4549 164.264 53.9388 164.364 54.3697 164.562C54.8005 164.761 55.1535 165.04 55.4286 165.398C55.7037 165.756 55.8744 166.173 55.9407 166.651H54.7674C54.6779 166.303 54.479 165.994 54.1708 165.726C53.8659 165.454 53.4549 165.318 52.9379 165.318C52.4805 165.318 52.0794 165.437 51.7347 165.676C51.3933 165.911 51.1265 166.245 50.9343 166.675C50.7454 167.103 50.6509 167.605 50.6509 168.182C50.6509 168.772 50.7437 169.286 50.9293 169.723C51.1183 170.161 51.3834 170.5 51.7248 170.742C52.0695 170.984 52.4738 171.105 52.9379 171.105C53.2428 171.105 53.5195 171.052 53.7681 170.946C54.0167 170.84 54.2272 170.688 54.3995 170.489C54.5719 170.29 54.6945 170.051 54.7674 169.773H55.9407C55.8744 170.223 55.7103 170.629 55.4485 170.991C55.19 171.349 54.8469 171.634 54.4194 171.846C53.9951 172.055 53.5013 172.159 52.9379 172.159ZM60.9769 164.364V165.358H57.0195V164.364H60.9769ZM58.1729 162.534H59.3462V169.812C59.3462 170.144 59.3943 170.393 59.4904 170.558C59.5898 170.721 59.7158 170.83 59.8683 170.886C60.024 170.939 60.1881 170.966 60.3604 170.966C60.4897 170.966 60.5958 170.959 60.6786 170.946C60.7615 170.929 60.8278 170.916 60.8775 170.906L61.1161 171.96C61.0366 171.99 60.9255 172.02 60.783 172.05C60.6405 172.083 60.4599 172.099 60.2411 172.099C59.9097 172.099 59.5849 172.028 59.2667 171.886C58.9518 171.743 58.69 171.526 58.4812 171.234C58.2757 170.943 58.1729 170.575 58.1729 170.131V162.534ZM62.7418 172V164.364H63.9151V172H62.7418ZM63.3384 163.091C63.1097 163.091 62.9125 163.013 62.7468 162.857C62.5844 162.701 62.5032 162.514 62.5032 162.295C62.5032 162.077 62.5844 161.889 62.7468 161.734C62.9125 161.578 63.1097 161.5 63.3384 161.5C63.5671 161.5 63.7627 161.578 63.9251 161.734C64.0908 161.889 64.1737 162.077 64.1737 162.295C64.1737 162.514 64.0908 162.701 63.9251 162.857C63.7627 163.013 63.5671 163.091 63.3384 163.091ZM69.1664 172.159C68.477 172.159 67.8721 171.995 67.3517 171.667C66.8347 171.339 66.4303 170.88 66.1387 170.29C65.8503 169.7 65.7061 169.01 65.7061 168.222C65.7061 167.426 65.8503 166.732 66.1387 166.138C66.4303 165.545 66.8347 165.085 67.3517 164.756C67.8721 164.428 68.477 164.264 69.1664 164.264C69.8558 164.264 70.459 164.428 70.976 164.756C71.4964 165.085 71.9007 165.545 72.1891 166.138C72.4808 166.732 72.6266 167.426 72.6266 168.222C72.6266 169.01 72.4808 169.7 72.1891 170.29C71.9007 170.88 71.4964 171.339 70.976 171.667C70.459 171.995 69.8558 172.159 69.1664 172.159ZM69.1664 171.105C69.69 171.105 70.1209 170.971 70.459 170.702C70.7971 170.434 71.0473 170.081 71.2097 169.643C71.3721 169.206 71.4533 168.732 71.4533 168.222C71.4533 167.711 71.3721 167.236 71.2097 166.795C71.0473 166.354 70.7971 165.998 70.459 165.726C70.1209 165.454 69.69 165.318 69.1664 165.318C68.6427 165.318 68.2118 165.454 67.8738 165.726C67.5357 165.998 67.2855 166.354 67.123 166.795C66.9606 167.236 66.8794 167.711 66.8794 168.222C66.8794 168.732 66.9606 169.206 67.123 169.643C67.2855 170.081 67.5357 170.434 67.8738 170.702C68.2118 170.971 68.6427 171.105 69.1664 171.105ZM75.5909 167.406V172H74.4176V164.364H75.5511V165.557H75.6506C75.8295 165.169 76.1013 164.857 76.4659 164.622C76.8305 164.384 77.3011 164.264 77.8778 164.264C78.3949 164.264 78.8473 164.37 79.2351 164.582C79.6229 164.791 79.9245 165.109 80.1399 165.537C80.3554 165.961 80.4631 166.498 80.4631 167.148V172H79.2898V167.227C79.2898 166.627 79.134 166.16 78.8224 165.825C78.5109 165.487 78.0833 165.318 77.5398 165.318C77.1652 165.318 76.8305 165.399 76.5355 165.562C76.2438 165.724 76.0135 165.961 75.8445 166.273C75.6754 166.584 75.5909 166.962 75.5909 167.406ZM88.0162 166.074L86.9622 166.372C86.8959 166.196 86.7981 166.026 86.6689 165.86C86.5429 165.691 86.3706 165.552 86.1518 165.442C85.9331 165.333 85.653 165.278 85.3116 165.278C84.8443 165.278 84.4548 165.386 84.1433 165.602C83.835 165.814 83.6809 166.084 83.6809 166.412C83.6809 166.704 83.787 166.934 83.9991 167.103C84.2112 167.272 84.5427 167.413 84.9934 167.526L86.127 167.804C86.8097 167.97 87.3185 168.223 87.6532 168.565C87.988 168.903 88.1554 169.339 88.1554 169.872C88.1554 170.31 88.0294 170.701 87.7775 171.045C87.5289 171.39 87.1809 171.662 86.7335 171.861C86.286 172.06 85.7657 172.159 85.1724 172.159C84.3935 172.159 83.7489 171.99 83.2385 171.652C82.728 171.314 82.4049 170.82 82.269 170.17L83.3826 169.892C83.4887 170.303 83.6892 170.611 83.9842 170.817C84.2825 171.022 84.6719 171.125 85.1525 171.125C85.6994 171.125 86.1336 171.009 86.4551 170.777C86.7799 170.542 86.9423 170.26 86.9423 169.932C86.9423 169.667 86.8495 169.445 86.6639 169.266C86.4783 169.083 86.1932 168.947 85.8088 168.858L84.536 168.56C83.8367 168.394 83.323 168.137 82.9949 167.789C82.67 167.438 82.5076 166.999 82.5076 166.472C82.5076 166.041 82.6286 165.66 82.8706 165.328C83.1158 164.997 83.4489 164.737 83.8699 164.548C84.2941 164.359 84.7747 164.264 85.3116 164.264C86.0673 164.264 86.6606 164.43 87.0914 164.761C87.5256 165.093 87.8339 165.53 88.0162 166.074Z" fill="#140101"/>
<path d="M255.261 154.239C254.261 154.239 253.361 154.04 252.56 153.642C251.759 153.244 251.116 152.699 250.634 152.006C250.151 151.312 249.886 150.523 249.841 149.636H251.886C251.966 150.426 252.324 151.08 252.96 151.597C253.602 152.108 254.369 152.364 255.261 152.364C255.977 152.364 256.614 152.196 257.17 151.861C257.733 151.526 258.173 151.065 258.491 150.48C258.815 149.889 258.977 149.222 258.977 148.477C258.977 147.716 258.81 147.037 258.474 146.44C258.145 145.838 257.69 145.364 257.111 145.017C256.531 144.67 255.869 144.494 255.125 144.489C254.591 144.483 254.043 144.565 253.48 144.736C252.918 144.901 252.455 145.114 252.091 145.375L250.114 145.136L251.17 136.545H260.239V138.42H252.943L252.33 143.568H252.432C252.79 143.284 253.239 143.048 253.778 142.861C254.318 142.673 254.881 142.58 255.466 142.58C256.534 142.58 257.486 142.835 258.321 143.347C259.162 143.852 259.821 144.545 260.298 145.426C260.781 146.307 261.023 147.312 261.023 148.443C261.023 149.557 260.773 150.551 260.273 151.426C259.778 152.295 259.097 152.983 258.227 153.489C257.358 153.989 256.369 154.239 255.261 154.239ZM270.545 136.545V154H268.431V138.761H268.329L264.067 141.591V139.443L268.431 136.545H270.545ZM275.565 154V152.466L281.326 146.159C282.002 145.42 282.559 144.778 282.996 144.233C283.434 143.682 283.758 143.165 283.968 142.682C284.184 142.193 284.292 141.682 284.292 141.148C284.292 140.534 284.144 140.003 283.849 139.554C283.559 139.105 283.161 138.759 282.656 138.514C282.15 138.27 281.582 138.148 280.951 138.148C280.281 138.148 279.695 138.287 279.195 138.565C278.701 138.838 278.317 139.222 278.045 139.716C277.778 140.21 277.644 140.79 277.644 141.455H275.633C275.633 140.432 275.869 139.534 276.34 138.761C276.812 137.989 277.454 137.386 278.266 136.955C279.085 136.523 280.002 136.307 281.019 136.307C282.042 136.307 282.948 136.523 283.738 136.955C284.528 137.386 285.147 137.969 285.596 138.702C286.045 139.435 286.269 140.25 286.269 141.148C286.269 141.79 286.153 142.418 285.92 143.031C285.692 143.639 285.295 144.318 284.727 145.068C284.164 145.812 283.383 146.722 282.383 147.795L278.462 151.989V152.125H286.576V154H275.565ZM290.641 154L298.448 138.557V138.42H289.448V136.545H300.63V138.523L292.857 154H290.641Z" fill="#141212"/>
<path d="M250.074 169V161.364H251.247V169H250.074ZM250.67 160.091C250.442 160.091 250.245 160.013 250.079 159.857C249.916 159.701 249.835 159.514 249.835 159.295C249.835 159.077 249.916 158.889 250.079 158.734C250.245 158.578 250.442 158.5 250.67 158.5C250.899 158.5 251.095 158.578 251.257 158.734C251.423 158.889 251.506 159.077 251.506 159.295C251.506 159.514 251.423 159.701 251.257 159.857C251.095 160.013 250.899 160.091 250.67 160.091ZM254.569 164.406V169H253.396V161.364H254.53V162.557H254.629C254.808 162.169 255.08 161.857 255.444 161.622C255.809 161.384 256.28 161.264 256.856 161.264C257.373 161.264 257.826 161.37 258.214 161.582C258.601 161.791 258.903 162.109 259.118 162.537C259.334 162.961 259.442 163.498 259.442 164.148V169H258.268V164.227C258.268 163.627 258.113 163.16 257.801 162.825C257.489 162.487 257.062 162.318 256.518 162.318C256.144 162.318 255.809 162.399 255.514 162.562C255.222 162.724 254.992 162.961 254.823 163.273C254.654 163.584 254.569 163.962 254.569 164.406ZM264.907 161.364V162.358H260.949V161.364H264.907ZM262.103 159.534H263.276V166.812C263.276 167.144 263.324 167.393 263.42 167.558C263.52 167.721 263.645 167.83 263.798 167.886C263.954 167.939 264.118 167.966 264.29 167.966C264.419 167.966 264.525 167.959 264.608 167.946C264.691 167.929 264.757 167.916 264.807 167.906L265.046 168.96C264.966 168.99 264.855 169.02 264.713 169.05C264.57 169.083 264.39 169.099 264.171 169.099C263.839 169.099 263.515 169.028 263.196 168.886C262.882 168.743 262.62 168.526 262.411 168.234C262.205 167.943 262.103 167.575 262.103 167.131V159.534ZM269.791 169.159C269.055 169.159 268.421 168.997 267.887 168.672C267.357 168.344 266.947 167.886 266.659 167.3C266.374 166.71 266.232 166.024 266.232 165.241C266.232 164.459 266.374 163.77 266.659 163.173C266.947 162.573 267.348 162.106 267.862 161.771C268.379 161.433 268.982 161.264 269.672 161.264C270.07 161.264 270.462 161.33 270.85 161.463C271.238 161.596 271.591 161.811 271.909 162.109C272.227 162.404 272.481 162.795 272.67 163.283C272.859 163.77 272.953 164.37 272.953 165.082V165.58H267.067V164.565H271.76C271.76 164.134 271.674 163.75 271.501 163.412C271.332 163.074 271.09 162.807 270.776 162.612C270.464 162.416 270.096 162.318 269.672 162.318C269.205 162.318 268.8 162.434 268.459 162.666C268.121 162.895 267.861 163.193 267.678 163.561C267.496 163.929 267.405 164.323 267.405 164.744V165.42C267.405 165.997 267.504 166.486 267.703 166.887C267.905 167.285 268.185 167.588 268.543 167.797C268.901 168.002 269.317 168.105 269.791 168.105C270.099 168.105 270.378 168.062 270.626 167.976C270.878 167.886 271.095 167.754 271.278 167.578C271.46 167.399 271.601 167.177 271.7 166.912L272.834 167.23C272.714 167.615 272.514 167.953 272.232 168.244C271.951 168.533 271.603 168.758 271.188 168.92C270.774 169.08 270.308 169.159 269.791 169.159ZM274.738 169V161.364H275.871V162.517H275.951C276.09 162.139 276.342 161.833 276.707 161.597C277.071 161.362 277.482 161.244 277.94 161.244C278.026 161.244 278.134 161.246 278.263 161.249C278.392 161.253 278.49 161.258 278.556 161.264V162.457C278.516 162.447 278.425 162.433 278.283 162.413C278.143 162.389 277.996 162.378 277.84 162.378C277.469 162.378 277.138 162.456 276.846 162.612C276.558 162.764 276.329 162.976 276.16 163.248C275.994 163.516 275.911 163.823 275.911 164.168V169H274.738ZM282.194 169.179C281.71 169.179 281.271 169.088 280.877 168.906C280.482 168.72 280.169 168.453 279.937 168.105C279.705 167.754 279.589 167.33 279.589 166.832C279.589 166.395 279.675 166.04 279.847 165.768C280.02 165.493 280.25 165.278 280.539 165.122C280.827 164.966 281.145 164.85 281.493 164.774C281.844 164.695 282.197 164.632 282.552 164.585C283.016 164.526 283.392 164.481 283.681 164.451C283.972 164.418 284.184 164.363 284.317 164.287C284.453 164.211 284.521 164.078 284.521 163.889V163.849C284.521 163.359 284.387 162.978 284.118 162.706C283.853 162.434 283.45 162.298 282.91 162.298C282.35 162.298 281.911 162.421 281.593 162.666C281.274 162.911 281.051 163.173 280.921 163.452L279.808 163.054C280.007 162.59 280.272 162.229 280.603 161.97C280.938 161.708 281.302 161.526 281.697 161.423C282.095 161.317 282.486 161.264 282.87 161.264C283.115 161.264 283.397 161.294 283.715 161.354C284.037 161.41 284.347 161.528 284.645 161.707C284.947 161.886 285.197 162.156 285.396 162.517C285.595 162.878 285.694 163.362 285.694 163.969V169H284.521V167.966H284.461C284.382 168.132 284.249 168.309 284.063 168.498C283.878 168.687 283.631 168.848 283.323 168.98C283.014 169.113 282.638 169.179 282.194 169.179ZM282.373 168.125C282.837 168.125 283.228 168.034 283.546 167.852C283.868 167.669 284.11 167.434 284.272 167.146C284.438 166.857 284.521 166.554 284.521 166.236V165.162C284.471 165.222 284.362 165.276 284.193 165.326C284.027 165.372 283.835 165.414 283.616 165.45C283.401 165.483 283.19 165.513 282.985 165.54C282.782 165.563 282.618 165.583 282.492 165.599C282.187 165.639 281.902 165.704 281.637 165.793C281.375 165.879 281.163 166.01 281.001 166.186C280.842 166.358 280.762 166.594 280.762 166.892C280.762 167.3 280.913 167.608 281.215 167.817C281.52 168.022 281.906 168.125 282.373 168.125ZM290.938 169.159C290.222 169.159 289.605 168.99 289.088 168.652C288.571 168.314 288.174 167.848 287.895 167.255C287.617 166.662 287.478 165.984 287.478 165.222C287.478 164.446 287.62 163.762 287.905 163.168C288.194 162.572 288.595 162.106 289.108 161.771C289.625 161.433 290.229 161.264 290.918 161.264C291.455 161.264 291.939 161.364 292.37 161.562C292.801 161.761 293.154 162.04 293.429 162.398C293.704 162.756 293.874 163.173 293.941 163.651H292.767C292.678 163.303 292.479 162.994 292.171 162.726C291.866 162.454 291.455 162.318 290.938 162.318C290.48 162.318 290.079 162.437 289.735 162.676C289.393 162.911 289.127 163.245 288.934 163.675C288.745 164.103 288.651 164.605 288.651 165.182C288.651 165.772 288.744 166.286 288.929 166.723C289.118 167.161 289.383 167.5 289.725 167.742C290.069 167.984 290.474 168.105 290.938 168.105C291.243 168.105 291.52 168.052 291.768 167.946C292.017 167.84 292.227 167.688 292.4 167.489C292.572 167.29 292.694 167.051 292.767 166.773H293.941C293.874 167.223 293.71 167.629 293.449 167.991C293.19 168.349 292.847 168.634 292.419 168.846C291.995 169.055 291.501 169.159 290.938 169.159ZM298.977 161.364V162.358H295.02V161.364H298.977ZM296.173 159.534H297.346V166.812C297.346 167.144 297.394 167.393 297.49 167.558C297.59 167.721 297.716 167.83 297.868 167.886C298.024 167.939 298.188 167.966 298.36 167.966C298.49 167.966 298.596 167.959 298.679 167.946C298.761 167.929 298.828 167.916 298.877 167.906L299.116 168.96C299.037 168.99 298.926 169.02 298.783 169.05C298.641 169.083 298.46 169.099 298.241 169.099C297.91 169.099 297.585 169.028 297.267 168.886C296.952 168.743 296.69 168.526 296.481 168.234C296.276 167.943 296.173 167.575 296.173 167.131V159.534ZM300.742 169V161.364H301.915V169H300.742ZM301.338 160.091C301.11 160.091 300.913 160.013 300.747 159.857C300.584 159.701 300.503 159.514 300.503 159.295C300.503 159.077 300.584 158.889 300.747 158.734C300.913 158.578 301.11 158.5 301.338 158.5C301.567 158.5 301.763 158.578 301.925 158.734C302.091 158.889 302.174 159.077 302.174 159.295C302.174 159.514 302.091 159.701 301.925 159.857C301.763 160.013 301.567 160.091 301.338 160.091ZM307.166 169.159C306.477 169.159 305.872 168.995 305.352 168.667C304.835 168.339 304.43 167.88 304.139 167.29C303.85 166.7 303.706 166.01 303.706 165.222C303.706 164.426 303.85 163.732 304.139 163.138C304.43 162.545 304.835 162.085 305.352 161.756C305.872 161.428 306.477 161.264 307.166 161.264C307.856 161.264 308.459 161.428 308.976 161.756C309.496 162.085 309.901 162.545 310.189 163.138C310.481 163.732 310.627 164.426 310.627 165.222C310.627 166.01 310.481 166.7 310.189 167.29C309.901 167.88 309.496 168.339 308.976 168.667C308.459 168.995 307.856 169.159 307.166 169.159ZM307.166 168.105C307.69 168.105 308.121 167.971 308.459 167.702C308.797 167.434 309.047 167.081 309.21 166.643C309.372 166.206 309.453 165.732 309.453 165.222C309.453 164.711 309.372 164.236 309.21 163.795C309.047 163.354 308.797 162.998 308.459 162.726C308.121 162.454 307.69 162.318 307.166 162.318C306.643 162.318 306.212 162.454 305.874 162.726C305.536 162.998 305.285 163.354 305.123 163.795C304.961 164.236 304.879 164.711 304.879 165.222C304.879 165.732 304.961 166.206 305.123 166.643C305.285 167.081 305.536 167.434 305.874 167.702C306.212 167.971 306.643 168.105 307.166 168.105ZM313.591 164.406V169H312.418V161.364H313.551V162.557H313.651C313.83 162.169 314.101 161.857 314.466 161.622C314.83 161.384 315.301 161.264 315.878 161.264C316.395 161.264 316.847 161.37 317.235 161.582C317.623 161.791 317.924 162.109 318.14 162.537C318.355 162.961 318.463 163.498 318.463 164.148V169H317.29V164.227C317.29 163.627 317.134 163.16 316.822 162.825C316.511 162.487 316.083 162.318 315.54 162.318C315.165 162.318 314.83 162.399 314.536 162.562C314.244 162.724 314.013 162.961 313.844 163.273C313.675 163.584 313.591 163.962 313.591 164.406ZM326.016 163.074L324.962 163.372C324.896 163.196 324.798 163.026 324.669 162.86C324.543 162.691 324.371 162.552 324.152 162.442C323.933 162.333 323.653 162.278 323.312 162.278C322.844 162.278 322.455 162.386 322.143 162.602C321.835 162.814 321.681 163.084 321.681 163.412C321.681 163.704 321.787 163.934 321.999 164.103C322.211 164.272 322.543 164.413 322.993 164.526L324.127 164.804C324.81 164.97 325.318 165.223 325.653 165.565C325.988 165.903 326.155 166.339 326.155 166.872C326.155 167.31 326.029 167.701 325.778 168.045C325.529 168.39 325.181 168.662 324.733 168.861C324.286 169.06 323.766 169.159 323.172 169.159C322.394 169.159 321.749 168.99 321.238 168.652C320.728 168.314 320.405 167.82 320.269 167.17L321.383 166.892C321.489 167.303 321.689 167.611 321.984 167.817C322.282 168.022 322.672 168.125 323.153 168.125C323.699 168.125 324.134 168.009 324.455 167.777C324.78 167.542 324.942 167.26 324.942 166.932C324.942 166.667 324.849 166.445 324.664 166.266C324.478 166.083 324.193 165.947 323.809 165.858L322.536 165.56C321.837 165.394 321.323 165.137 320.995 164.789C320.67 164.438 320.508 163.999 320.508 163.472C320.508 163.041 320.629 162.66 320.871 162.328C321.116 161.997 321.449 161.737 321.87 161.548C322.294 161.359 322.775 161.264 323.312 161.264C324.067 161.264 324.661 161.43 325.091 161.761C325.526 162.093 325.834 162.53 326.016 163.074Z" fill="#140101"/>
<path d="M22.12 95.52C20.2533 95.52 18.6 95.0933 17.16 94.24C15.72 93.3867 14.6 92.1867 13.8 90.64C13.0267 89.0667 12.64 87.2667 12.64 85.24C12.64 82.9733 13.12 80.96 14.08 79.2C15.04 77.44 16.3733 76.0667 18.08 75.08C19.7867 74.0933 21.7333 73.6 23.92 73.6C25.8667 73.6 27.5733 74.04 29.04 74.92C30.5333 75.8 31.68 77.04 32.48 78.64C33.3067 80.2133 33.72 82.04 33.72 84.12C33.72 86.3333 33.2267 88.3067 32.24 90.04C31.2533 91.7467 29.88 93.0933 28.12 94.08C26.36 95.04 24.36 95.52 22.12 95.52ZM23.04 93.44C25.1467 93.44 26.8133 92.72 28.04 91.28C29.2933 89.8133 29.92 87.8267 29.92 85.32C29.92 83.0533 29.3733 81.1867 28.28 79.72C27.1867 78.2267 25.6667 77.3067 23.72 76.96C22.3333 76.96 21.08 77.32 19.96 78.04C18.8667 78.7333 18 79.7067 17.36 80.96C16.7467 82.1867 16.44 83.5867 16.44 85.16C16.44 87.64 17.04 89.64 18.24 91.16C19.4667 92.68 21.0667 93.44 23.04 93.44ZM44.2531 95.36C43.4531 95.36 42.7731 95.04 42.2131 94.4C41.6531 93.76 41.1865 92.96 40.8131 92C40.4398 91.04 39.9865 89.6933 39.4531 87.96C38.8131 85.8533 38.2265 84.1467 37.6931 82.84C37.1598 81.5067 36.4798 80.3333 35.6531 79.32C36.3998 79 37.1198 78.7867 37.8131 78.68C38.5065 78.5467 39.2931 78.48 40.1731 78.48C40.4398 79.92 41.1331 82.3867 42.2531 85.88C43.3731 89.3467 44.2931 91.6533 45.0131 92.8C46.3198 88.72 47.2131 85.7733 47.6931 83.96C48.1731 82.1467 48.4131 80.84 48.4131 80.04C48.4131 79.64 48.3465 79.2667 48.2131 78.92C49.2798 78.6267 50.4665 78.48 51.7731 78.48C50.2531 82.16 48.5865 87.3067 46.7731 93.92L44.2531 95.36ZM60.4138 95.44C58.2804 95.44 56.6404 94.7467 55.4938 93.36C54.3738 91.9467 53.8138 89.9467 53.8138 87.36C53.8138 85.6 54.1604 84.04 54.8538 82.68C55.5471 81.2933 56.5071 80.2133 57.7338 79.44C58.9871 78.6667 60.4138 78.28 62.0138 78.28C64.1471 78.28 65.7604 78.9867 66.8538 80.4C67.9738 81.7867 68.5338 83.84 68.5338 86.56C67.1204 86.9067 65.4138 87.2133 63.4138 87.48C61.4138 87.72 59.4404 87.8667 57.4938 87.92C57.6538 89.5467 58.0938 90.7333 58.8138 91.48C59.5604 92.2 60.6404 92.56 62.0538 92.56C63.1471 92.56 64.1738 92.44 65.1338 92.2C66.1204 91.9333 66.9604 91.5733 67.6538 91.12L67.9338 91.88C67.1071 92.9467 66.0004 93.8133 64.6138 94.48C63.2538 95.12 61.8538 95.44 60.4138 95.44ZM57.4138 86.64C58.7471 86.5067 60.0538 86.2933 61.3338 86C62.6138 85.68 63.6271 85.3333 64.3738 84.96C64.3471 83.5467 63.9338 82.3867 63.1338 81.48C62.3604 80.5733 61.3604 80.12 60.1338 80.12C59.3071 80.6 58.6404 81.4267 58.1338 82.6C57.6538 83.7733 57.4138 85.12 57.4138 86.64ZM76.5741 95.24C75.9074 95.24 75.1341 95.16 74.2541 95C74.4407 92.3333 74.5341 89.4933 74.5341 86.48C74.5341 85.0133 74.4807 83.8933 74.3741 83.12C74.2941 82.3467 74.1474 81.7333 73.9341 81.28C73.7474 80.8267 73.4274 80.36 72.9741 79.88C73.4007 79.4 73.8674 79.04 74.3741 78.8C74.8807 78.56 75.3341 78.44 75.7341 78.44C77.2541 78.44 78.0541 79.4267 78.1341 81.4C78.8274 80.5467 79.5607 79.8533 80.3341 79.32C81.1341 78.76 82.0407 78.3467 83.0541 78.08C83.2407 78.5067 83.4007 79.12 83.5341 79.92C83.6941 80.72 83.7741 81.4533 83.7741 82.12C83.4541 82.0667 83.0007 82.04 82.4141 82.04C81.5607 82.04 80.7474 82.1467 79.9741 82.36C79.2007 82.5467 78.5741 82.7867 78.0941 83.08L78.0541 84.32C78.0007 86.08 77.9741 87.64 77.9741 89C77.9741 91.8 78.2407 93.8 78.7741 95C77.9741 95.16 77.2407 95.24 76.5741 95.24ZM92.7297 95.36C91.9297 95.36 91.2497 95.04 90.6897 94.4C90.1297 93.76 89.663 92.96 89.2897 92C88.9164 91.04 88.463 89.6933 87.9297 87.96C87.2897 85.8533 86.703 84.1467 86.1697 82.84C85.6364 81.5067 84.9564 80.3333 84.1297 79.32C84.8764 79 85.5964 78.7867 86.2897 78.68C86.983 78.5467 87.7697 78.48 88.6497 78.48C88.9164 79.92 89.6097 82.3867 90.7297 85.88C91.8497 89.3467 92.7697 91.6533 93.4897 92.8C94.7964 88.72 95.6897 85.7733 96.1697 83.96C96.6497 82.1467 96.8897 80.84 96.8897 80.04C96.8897 79.64 96.823 79.2667 96.6897 78.92C97.7564 78.6267 98.943 78.48 100.25 78.48C98.7297 82.16 97.063 87.3067 95.2497 93.92L92.7297 95.36ZM105.693 95.36C104.92 95.36 104.373 95.12 104.053 94.64C103.733 94.16 103.573 93.3067 103.573 92.08C103.573 91.0933 103.6 89.6933 103.653 87.88C103.706 86.1733 103.733 84.92 103.733 84.12C103.733 83.0267 103.666 82.0267 103.533 81.12C103.4 80.1867 103.2 79.52 102.933 79.12C103.68 78.8267 104.386 78.6267 105.053 78.52C105.746 78.3867 106.52 78.32 107.373 78.32C107.24 79.0933 107.12 80.2933 107.013 81.92C106.933 83.52 106.893 85.32 106.893 87.32C106.893 88.7867 106.933 89.9067 107.013 90.68C107.12 91.4533 107.266 92.0667 107.453 92.52C107.666 92.9733 108 93.44 108.453 93.92C108.026 94.4 107.56 94.76 107.053 95C106.546 95.24 106.093 95.36 105.693 95.36ZM105.213 75.8C104.493 74.92 103.68 74.0933 102.773 73.32C103.573 72.3333 104.386 71.5067 105.213 70.84C105.96 71.7467 106.786 72.5733 107.693 73.32C106.946 74.2267 106.12 75.0533 105.213 75.8ZM118.539 95.44C116.405 95.44 114.765 94.7467 113.619 93.36C112.499 91.9467 111.939 89.9467 111.939 87.36C111.939 85.6 112.285 84.04 112.979 82.68C113.672 81.2933 114.632 80.2133 115.859 79.44C117.112 78.6667 118.539 78.28 120.139 78.28C122.272 78.28 123.885 78.9867 124.979 80.4C126.099 81.7867 126.659 83.84 126.659 86.56C125.245 86.9067 123.539 87.2133 121.539 87.48C119.539 87.72 117.565 87.8667 115.619 87.92C115.779 89.5467 116.219 90.7333 116.939 91.48C117.685 92.2 118.765 92.56 120.179 92.56C121.272 92.56 122.299 92.44 123.259 92.2C124.245 91.9333 125.085 91.5733 125.779 91.12L126.059 91.88C125.232 92.9467 124.125 93.8133 122.739 94.48C121.379 95.12 119.979 95.44 118.539 95.44ZM115.539 86.64C116.872 86.5067 118.179 86.2933 119.459 86C120.739 85.68 121.752 85.3333 122.499 84.96C122.472 83.5467 122.059 82.3867 121.259 81.48C120.485 80.5733 119.485 80.12 118.259 80.12C117.432 80.6 116.765 81.4267 116.259 82.6C115.779 83.7733 115.539 85.12 115.539 86.64ZM136.348 95.36C134.774 95.36 133.668 94.2667 133.028 92.08L131.588 87.2C131.268 86.0267 130.974 85 130.708 84.12C130.334 83 129.934 82.0133 129.507 81.16C129.108 80.28 128.734 79.6667 128.388 79.32C129.081 79.0267 129.774 78.8133 130.468 78.68C131.188 78.5467 132.014 78.48 132.948 78.48C133.134 79.6533 133.748 82.08 134.788 85.76C135.854 89.44 136.561 91.6533 136.908 92.4C138.908 86.5333 140.081 82.8933 140.428 81.48C139.974 80.44 139.534 79.72 139.108 79.32C140.414 78.76 141.948 78.48 143.708 78.48C143.868 79.6267 144.494 82.1467 145.588 86.04C146.708 89.9067 147.401 92.0533 147.668 92.48C149.161 88.24 150.161 85.2533 150.668 83.52C151.201 81.7867 151.468 80.56 151.468 79.84C151.468 79.6 151.414 79.2933 151.308 78.92C152.294 78.6267 153.494 78.48 154.908 78.48C154.134 80.16 153.241 82.3733 152.228 85.12C151.241 87.8667 150.241 90.8667 149.228 94.12L147.068 95.36C146.268 95.36 145.601 95.0933 145.068 94.56C144.534 94 144.094 93.1733 143.748 92.08C142.708 88.6133 142.001 86.16 141.628 84.72C140.774 87.04 139.734 90.1733 138.508 94.12L136.348 95.36Z" fill="#110101"/>
<path d="M16.08 109.18C15.2933 109.18 14.74 108.633 14.42 107.54L13.7 105.1C13.54 104.513 13.3933 104 13.26 103.56C13.0733 103 12.8733 102.507 12.66 102.08C12.46 101.64 12.2733 101.333 12.1 101.16C12.4467 101.013 12.7933 100.907 13.14 100.84C13.5 100.773 13.9133 100.74 14.38 100.74C14.4733 101.327 14.78 102.54 15.3 104.38C15.8333 106.22 16.1867 107.327 16.36 107.7C17.36 104.767 17.9467 102.947 18.12 102.24C17.8933 101.72 17.6733 101.36 17.46 101.16C18.1133 100.88 18.88 100.74 19.76 100.74C19.84 101.313 20.1533 102.573 20.7 104.52C21.26 106.453 21.6067 107.527 21.74 107.74C22.4867 105.62 22.9867 104.127 23.24 103.26C23.5067 102.393 23.64 101.78 23.64 101.42C23.64 101.3 23.6133 101.147 23.56 100.96C24.0533 100.813 24.6533 100.74 25.36 100.74C24.9733 101.58 24.5267 102.687 24.02 104.06C23.5267 105.433 23.0267 106.933 22.52 108.56L21.44 109.18C21.04 109.18 20.7067 109.047 20.44 108.78C20.1733 108.5 19.9533 108.087 19.78 107.54C19.26 105.807 18.9067 104.58 18.72 103.86C18.2933 105.02 17.7733 106.587 17.16 108.56L16.08 109.18ZM29.4413 109.22C28.3746 109.22 27.5546 108.873 26.9813 108.18C26.4213 107.473 26.1413 106.473 26.1413 105.18C26.1413 104.3 26.3146 103.52 26.6613 102.84C27.0079 102.147 27.4879 101.607 28.1013 101.22C28.7279 100.833 29.4413 100.64 30.2413 100.64C31.3079 100.64 32.1146 100.993 32.6613 101.7C33.2213 102.393 33.5013 103.42 33.5013 104.78C32.7946 104.953 31.9413 105.107 30.9413 105.24C29.9413 105.36 28.9546 105.433 27.9813 105.46C28.0613 106.273 28.2813 106.867 28.6413 107.24C29.0146 107.6 29.5546 107.78 30.2613 107.78C30.8079 107.78 31.3213 107.72 31.8013 107.6C32.2946 107.467 32.7146 107.287 33.0613 107.06L33.2013 107.44C32.7879 107.973 32.2346 108.407 31.5413 108.74C30.8613 109.06 30.1613 109.22 29.4413 109.22ZM27.9413 104.82C28.6079 104.753 29.2613 104.647 29.9013 104.5C30.5413 104.34 31.0479 104.167 31.4213 103.98C31.4079 103.273 31.2013 102.693 30.8013 102.24C30.4146 101.787 29.9146 101.56 29.3013 101.56C28.8879 101.8 28.5546 102.213 28.3013 102.8C28.0613 103.387 27.9413 104.06 27.9413 104.82ZM37.1014 109.18C36.7014 109.18 36.4214 109.067 36.2614 108.84C36.1014 108.6 36.0214 108.167 36.0214 107.54C36.0214 107.127 36.0347 106.467 36.0614 105.56C36.0881 104.547 36.1014 103.713 36.1014 103.06C36.1014 100.913 35.9747 99.38 35.7214 98.46C36.0947 98.3133 36.4481 98.2133 36.7814 98.16C37.1281 98.0933 37.5081 98.06 37.9214 98.06C37.7614 99.7133 37.6814 102.08 37.6814 105.16C37.6814 105.88 37.7014 106.44 37.7414 106.84C37.7947 107.227 37.8747 107.533 37.9814 107.76C38.0881 107.987 38.2547 108.22 38.4814 108.46C38.2681 108.7 38.0347 108.88 37.7814 109C37.5281 109.12 37.3014 109.18 37.1014 109.18ZM43.5838 109.22C42.5038 109.22 41.6704 108.873 41.0838 108.18C40.4971 107.473 40.2038 106.473 40.2038 105.18C40.2038 104.3 40.3771 103.52 40.7238 102.84C41.0838 102.147 41.5838 101.607 42.2238 101.22C42.8638 100.833 43.5904 100.64 44.4038 100.64C45.3371 100.64 46.1304 100.8 46.7838 101.12C46.7838 101.347 46.7171 101.64 46.5838 102C46.4638 102.347 46.3238 102.647 46.1638 102.9C45.6304 102.447 45.1238 102.1 44.6438 101.86C44.1638 101.607 43.7638 101.48 43.4438 101.48C43.0438 101.707 42.7104 102.113 42.4438 102.7C42.1771 103.273 42.0438 103.907 42.0438 104.6C42.0438 105.747 42.2238 106.567 42.5838 107.06C42.9571 107.553 43.5704 107.8 44.4238 107.8C45.3971 107.8 46.2238 107.553 46.9038 107.06L47.0638 107.4C46.6771 107.947 46.1638 108.387 45.5238 108.72C44.8838 109.053 44.2371 109.22 43.5838 109.22ZM52.0859 109.22C50.9926 109.22 50.1126 108.847 49.4459 108.1C48.7793 107.353 48.4459 106.373 48.4459 105.16C48.4459 104.28 48.6259 103.5 48.9859 102.82C49.3593 102.127 49.8726 101.593 50.5259 101.22C51.1926 100.833 51.9459 100.64 52.7859 100.64C53.5326 100.64 54.1926 100.813 54.7659 101.16C55.3393 101.493 55.7793 101.967 56.0859 102.58C56.4059 103.193 56.5659 103.9 56.5659 104.7C56.5659 105.58 56.3726 106.367 55.9859 107.06C55.6126 107.74 55.0859 108.273 54.4059 108.66C53.7259 109.033 52.9526 109.22 52.0859 109.22ZM52.4459 108.38C53.2059 108.38 53.7993 108.127 54.2259 107.62C54.6526 107.1 54.8659 106.373 54.8659 105.44C54.8659 104.613 54.6726 103.9 54.2859 103.3C53.8993 102.7 53.3659 102.293 52.6859 102.08C51.9126 102.08 51.2926 102.347 50.8259 102.88C50.3726 103.4 50.1459 104.107 50.1459 105C50.1459 106.04 50.3593 106.867 50.7859 107.48C51.2259 108.08 51.7793 108.38 52.4459 108.38ZM60.4502 109.12C60.1702 109.12 59.7968 109.08 59.3302 109C59.4235 107.667 59.4702 106.247 59.4702 104.74C59.4702 104.007 59.4435 103.447 59.3902 103.06C59.3502 102.673 59.2768 102.367 59.1702 102.14C59.0768 101.913 58.9168 101.68 58.6902 101.44C58.9035 101.187 59.1302 101.007 59.3702 100.9C59.6102 100.78 59.8302 100.72 60.0302 100.72C60.7235 100.72 61.1235 101.113 61.2302 101.9C61.5768 101.513 61.9835 101.207 62.4502 100.98C62.9168 100.753 63.3835 100.64 63.8502 100.64C64.9835 100.64 65.6968 101.12 65.9902 102.08C66.3368 101.627 66.7568 101.273 67.2502 101.02C67.7435 100.767 68.2435 100.64 68.7502 100.64C70.2968 100.64 71.0702 101.56 71.0702 103.4L71.0302 104.66C70.9902 105.153 70.9702 105.6 70.9702 106C70.9702 107.373 71.1102 108.373 71.3902 109C71.0168 109.08 70.6635 109.12 70.3302 109.12C69.9968 109.12 69.5968 109.08 69.1302 109C69.2235 107.387 69.2702 105.64 69.2702 103.76C69.2702 103.227 69.1635 102.847 68.9502 102.62C68.7368 102.38 68.3835 102.26 67.8902 102.26C67.2235 102.26 66.6368 102.413 66.1302 102.72C66.1435 103.213 66.1368 103.947 66.1102 104.92C66.0968 105.2 66.0902 105.56 66.0902 106C66.0902 107.387 66.2168 108.387 66.4702 109C66.1102 109.08 65.7635 109.12 65.4302 109.12C65.0968 109.12 64.6968 109.08 64.2302 109C64.3235 107.387 64.3702 105.64 64.3702 103.76C64.3702 103.227 64.2635 102.847 64.0502 102.62C63.8368 102.38 63.4835 102.26 62.9902 102.26C62.3102 102.26 61.7368 102.413 61.2702 102.72L61.2502 103.58C61.2102 104.26 61.1902 105.067 61.1902 106C61.1902 107.4 61.3235 108.4 61.5902 109C61.1902 109.08 60.8102 109.12 60.4502 109.12ZM76.8241 109.22C75.7574 109.22 74.9374 108.873 74.3641 108.18C73.8041 107.473 73.5241 106.473 73.5241 105.18C73.5241 104.3 73.6974 103.52 74.0441 102.84C74.3907 102.147 74.8707 101.607 75.4841 101.22C76.1107 100.833 76.8241 100.64 77.6241 100.64C78.6907 100.64 79.4974 100.993 80.0441 101.7C80.6041 102.393 80.8841 103.42 80.8841 104.78C80.1774 104.953 79.3241 105.107 78.3241 105.24C77.3241 105.36 76.3374 105.433 75.3641 105.46C75.4441 106.273 75.6641 106.867 76.0241 107.24C76.3974 107.6 76.9374 107.78 77.6441 107.78C78.1907 107.78 78.7041 107.72 79.1841 107.6C79.6774 107.467 80.0974 107.287 80.4441 107.06L80.5841 107.44C80.1707 107.973 79.6174 108.407 78.9241 108.74C78.2441 109.06 77.5441 109.22 76.8241 109.22ZM75.3241 104.82C75.9907 104.753 76.6441 104.647 77.2841 104.5C77.9241 104.34 78.4307 104.167 78.8041 103.98C78.7907 103.273 78.5841 102.693 78.1841 102.24C77.7974 101.787 77.2974 101.56 76.6841 101.56C76.2707 101.8 75.9374 102.213 75.6841 102.8C75.4441 103.387 75.3241 104.06 75.3241 104.82ZM91.8019 109.18C91.2819 109.18 90.8019 109.087 90.3619 108.9C89.9352 108.713 89.5819 108.467 89.3019 108.16L88.8019 109C88.6685 109 88.4552 108.967 88.1619 108.9C88.2152 108.273 88.2552 107.273 88.2819 105.9C88.3219 104.527 88.3419 103.34 88.3419 102.34C88.3419 100.487 88.2285 99.1933 88.0019 98.46C88.6552 98.1933 89.3952 98.06 90.2219 98.06C90.1152 98.9 90.0485 100.12 90.0219 101.72C90.8085 101.107 91.6419 100.8 92.5219 100.8C93.4952 100.8 94.2685 101.16 94.8419 101.88C95.4285 102.587 95.7219 103.547 95.7219 104.76C95.7219 106.187 95.3819 107.28 94.7019 108.04C94.0219 108.8 93.0552 109.18 91.8019 109.18ZM91.6219 108.16C92.3685 108.16 92.9352 107.933 93.3219 107.48C93.7085 107.013 93.9019 106.333 93.9019 105.44C93.9019 103.667 93.2752 102.553 92.0219 102.1C91.3419 102.1 90.6685 102.267 90.0019 102.6C89.9752 103.907 89.9619 104.76 89.9619 105.16C89.9619 106.24 90.0085 107.02 90.1019 107.5C90.5685 107.94 91.0752 108.16 91.6219 108.16ZM99.1303 109.22C98.6503 109.22 98.2436 109.047 97.9103 108.7C97.5903 108.34 97.4303 107.887 97.4303 107.34C97.4303 105.727 99.0036 104.82 102.15 104.62C102.15 103.74 102.024 103.127 101.77 102.78C101.517 102.433 101.05 102.26 100.37 102.26C99.957 102.26 99.537 102.327 99.1103 102.46C98.697 102.593 98.317 102.773 97.9703 103L97.8103 102.62C98.1703 102.033 98.657 101.56 99.2703 101.2C99.8836 100.827 100.51 100.64 101.15 100.64C102.017 100.64 102.684 100.873 103.15 101.34C103.617 101.793 103.85 102.453 103.85 103.32C103.85 103.8 103.817 104.34 103.75 104.94C103.697 105.58 103.67 106.053 103.67 106.36C103.67 106.867 103.724 107.26 103.83 107.54C103.937 107.82 104.144 108.127 104.45 108.46C103.957 108.887 103.417 109.14 102.83 109.22C102.47 108.98 102.217 108.613 102.07 108.12C101.59 108.453 101.09 108.72 100.57 108.92C100.05 109.12 99.5703 109.22 99.1303 109.22ZM99.9303 108.26C100.264 108.233 100.617 108.14 100.99 107.98C101.364 107.82 101.697 107.627 101.99 107.4V107.3C101.99 106.873 102.01 106.46 102.05 106.06L102.11 105.2C101.204 105.253 100.504 105.447 100.01 105.78C99.517 106.1 99.2703 106.533 99.2703 107.08C99.2703 107.307 99.3303 107.533 99.4503 107.76C99.5703 107.973 99.7303 108.14 99.9303 108.26ZM109.541 109.22C108.461 109.22 107.627 108.873 107.041 108.18C106.454 107.473 106.161 106.473 106.161 105.18C106.161 104.3 106.334 103.52 106.681 102.84C107.041 102.147 107.541 101.607 108.181 101.22C108.821 100.833 109.547 100.64 110.361 100.64C111.294 100.64 112.087 100.8 112.741 101.12C112.741 101.347 112.674 101.64 112.541 102C112.421 102.347 112.281 102.647 112.121 102.9C111.587 102.447 111.081 102.1 110.601 101.86C110.121 101.607 109.721 101.48 109.401 101.48C109.001 101.707 108.667 102.113 108.401 102.7C108.134 103.273 108.001 103.907 108.001 104.6C108.001 105.747 108.181 106.567 108.541 107.06C108.914 107.553 109.527 107.8 110.381 107.8C111.354 107.8 112.181 107.553 112.861 107.06L113.021 107.4C112.634 107.947 112.121 108.387 111.481 108.72C110.841 109.053 110.194 109.22 109.541 109.22ZM116.003 109.12C115.67 109.12 115.296 109.08 114.883 109C114.976 107.293 115.023 105.593 115.023 103.9C115.023 101.58 114.956 99.7667 114.823 98.46C115.476 98.1933 116.21 98.06 117.023 98.06C116.93 98.74 116.856 99.6933 116.803 100.92C116.75 102.147 116.723 103.327 116.723 104.46V104.9C118.043 103.487 118.91 102.52 119.323 102C119.736 101.467 119.943 101.087 119.943 100.86C120.556 100.713 121.21 100.64 121.903 100.64C121.09 101.4 120.09 102.42 118.903 103.7C120.53 106.433 121.743 108.1 122.543 108.7C122.183 108.86 121.816 108.967 121.443 109.02C121.083 109.087 120.67 109.12 120.203 109.12C119.83 108.387 118.983 107.033 117.663 105.06L116.723 106.1C116.79 107.593 116.93 108.56 117.143 109C116.77 109.08 116.39 109.12 116.003 109.12ZM123.031 111.14C123.231 110.873 123.384 110.553 123.491 110.18C123.611 109.82 123.671 109.447 123.671 109.06C123.671 108.407 123.558 107.82 123.331 107.3C123.558 107.167 123.838 107.053 124.171 106.96C124.504 106.867 124.798 106.82 125.051 106.82L125.511 107.32C125.458 108.093 125.231 108.827 124.831 109.52C124.444 110.213 123.918 110.833 123.251 111.38L123.031 111.14ZM137.088 109.22C135.621 109.22 134.494 108.787 133.708 107.92C132.921 107.053 132.528 105.807 132.528 104.18C132.528 103.047 132.748 102.04 133.188 101.16C133.641 100.267 134.268 99.5733 135.068 99.08C135.881 98.5867 136.808 98.34 137.848 98.34C138.981 98.34 139.948 98.5 140.748 98.82C140.748 99.1133 140.694 99.4467 140.588 99.82C140.494 100.18 140.374 100.473 140.228 100.7C139.668 100.313 139.068 99.9867 138.428 99.72C137.788 99.4533 137.281 99.32 136.908 99.32C136.468 99.4267 136.054 99.7 135.668 100.14C135.294 100.567 134.994 101.093 134.768 101.72C134.541 102.333 134.428 102.967 134.428 103.62C134.428 104.98 134.721 105.993 135.308 106.66C135.908 107.327 136.694 107.66 137.668 107.66C138.988 107.66 140.068 107.42 140.908 106.94L141.048 107.44C140.608 107.973 140.021 108.407 139.288 108.74C138.568 109.06 137.834 109.22 137.088 109.22ZM143.953 109.12C143.62 109.12 143.233 109.08 142.793 109C142.886 107.293 142.933 105.593 142.933 103.9C142.933 101.58 142.866 99.7667 142.733 98.46C143.386 98.1933 144.12 98.06 144.933 98.06C144.853 98.6867 144.76 99.98 144.653 101.94C145.026 101.54 145.453 101.227 145.933 101C146.413 100.76 146.9 100.64 147.393 100.64C148.953 100.64 149.733 101.56 149.733 103.4L149.693 104.66L149.653 106C149.653 107.4 149.786 108.4 150.053 109C149.68 109.08 149.326 109.12 148.993 109.12C148.673 109.12 148.28 109.08 147.813 109C147.906 107.107 147.953 105.36 147.953 103.76C147.953 103.227 147.84 102.847 147.613 102.62C147.4 102.38 147.046 102.26 146.553 102.26C145.846 102.26 145.22 102.433 144.673 102.78C144.646 103.167 144.633 103.713 144.633 104.42C144.633 106.913 144.773 108.44 145.053 109C144.693 109.08 144.326 109.12 143.953 109.12ZM153.956 109.18C153.569 109.18 153.296 109.06 153.136 108.82C152.976 108.58 152.896 108.153 152.896 107.54C152.896 107.047 152.909 106.347 152.936 105.44C152.963 104.587 152.976 103.96 152.976 103.56C152.976 103.013 152.943 102.513 152.876 102.06C152.809 101.593 152.709 101.26 152.576 101.06C152.949 100.913 153.303 100.813 153.636 100.76C153.983 100.693 154.369 100.66 154.796 100.66C154.729 101.047 154.669 101.647 154.616 102.46C154.576 103.26 154.556 104.16 154.556 105.16C154.556 105.893 154.576 106.453 154.616 106.84C154.669 107.227 154.743 107.533 154.836 107.76C154.943 107.987 155.109 108.22 155.336 108.46C155.123 108.7 154.889 108.88 154.636 109C154.383 109.12 154.156 109.18 153.956 109.18ZM153.716 99.4C153.356 98.96 152.949 98.5467 152.496 98.16C152.896 97.6667 153.303 97.2533 153.716 96.92C154.089 97.3733 154.503 97.7867 154.956 98.16C154.583 98.6133 154.169 99.0267 153.716 99.4ZM160.379 109.22C159.312 109.22 158.492 108.873 157.919 108.18C157.359 107.473 157.079 106.473 157.079 105.18C157.079 104.3 157.252 103.52 157.599 102.84C157.945 102.147 158.425 101.607 159.039 101.22C159.665 100.833 160.379 100.64 161.179 100.64C162.245 100.64 163.052 100.993 163.599 101.7C164.159 102.393 164.439 103.42 164.439 104.78C163.732 104.953 162.879 105.107 161.879 105.24C160.879 105.36 159.892 105.433 158.919 105.46C158.999 106.273 159.219 106.867 159.579 107.24C159.952 107.6 160.492 107.78 161.199 107.78C161.745 107.78 162.259 107.72 162.739 107.6C163.232 107.467 163.652 107.287 163.999 107.06L164.139 107.44C163.725 107.973 163.172 108.407 162.479 108.74C161.799 109.06 161.099 109.22 160.379 109.22ZM158.879 104.82C159.545 104.753 160.199 104.647 160.839 104.5C161.479 104.34 161.985 104.167 162.359 103.98C162.345 103.273 162.139 102.693 161.739 102.24C161.352 101.787 160.852 101.56 160.239 101.56C159.825 101.8 159.492 102.213 159.239 102.8C158.999 103.387 158.879 104.06 158.879 104.82ZM166.439 111.98C166.719 111.633 166.932 111.307 167.079 111C167.226 110.693 167.332 110.28 167.399 109.76C167.466 109.253 167.499 108.54 167.499 107.62C167.499 106.567 167.446 104.74 167.339 102.14C166.886 102.127 166.579 102.087 166.419 102.02C166.272 101.953 166.199 101.827 166.199 101.64C166.732 101.36 167.112 101.133 167.339 100.96C167.499 99.8533 167.886 98.9667 168.499 98.3C169.126 97.6333 169.892 97.3 170.799 97.3C171.439 97.3 172.066 97.3867 172.679 97.56C172.679 97.76 172.619 98.04 172.499 98.4C172.379 98.76 172.239 99.0867 172.079 99.38C171.692 99.0067 171.279 98.7067 170.839 98.48C170.412 98.24 170.066 98.1267 169.799 98.14C169.572 98.3 169.406 98.5933 169.299 99.02C169.206 99.4467 169.152 100.133 169.139 101.08C170.139 101.053 170.832 101 171.219 100.92C171.219 101.187 171.192 101.427 171.139 101.64C171.086 101.853 170.999 102.08 170.879 102.32C170.439 102.173 169.846 102.093 169.099 102.08V103.48C169.099 104.28 169.126 105.213 169.179 106.28C169.219 106.84 169.239 107.327 169.239 107.74C169.239 108.407 169.166 108.967 169.019 109.42C168.886 109.873 168.639 110.307 168.279 110.72C167.919 111.133 167.379 111.62 166.659 112.18L166.439 111.98ZM174.185 102.02C174.185 101.167 174.151 100.42 174.085 99.78C174.018 99.1267 173.925 98.6733 173.805 98.42C174.511 98.18 175.245 98.06 176.005 98.06C175.938 98.6467 175.878 99.5733 175.825 100.84C175.785 102.093 175.765 103.4 175.765 104.76C175.231 105.147 174.791 105.513 174.445 105.86H174.185V102.02ZM175.025 109.3C174.598 108.767 174.118 108.287 173.585 107.86C173.998 107.327 174.478 106.84 175.025 106.4C175.478 106.92 175.965 107.407 176.485 107.86C176.031 108.393 175.545 108.873 175.025 109.3Z" fill="#1A0202"/>
</svg>
